<svg xmlns="http://www.w3.org/2000/svg" xmlns:xlink="http://www.w3.org/1999/xlink" xmlns:lucid="lucid" width="1712.92" height="1398.89"><g transform="translate(-159.54115256205523 98.8920017419074)" lucid:page-tab-id="0_0"><path d="M0-1259.2h1870.4v2582.4H0z" fill="#fff"/><path d="M560.7 88h1228.23v1012H560.7z" stroke="#000" stroke-width="2" fill="#e5e5e5" fill-opacity=".6"/><path d="M179.54-78.9h1672.92V1280H179.54z" stroke="#248814" stroke-width="2" fill="#fff" fill-opacity="0"/><path d="M179.54-78.9h56v56h-56v-56z" stroke="#fff" stroke-opacity="0" fill="#248814"/><path d="M211.3-50.6h-1.18v-1.1c-.12-1.72-1.47-3.07-3.2-3.2-1.9-.12-3.54 1.3-3.67 3.2v1.08h-1.18c-.44 0-.8.36-.8.8v6.12c0 .45.36.8.8.8h9.23c.44 0 .8-.35.8-.8v-6.08c0-.45-.36-.8-.8-.8zm-6.4-1.06c.1-1.02 1-1.76 2-1.66.9.08 1.58.76 1.67 1.66v1.07h-3.72zm5.65 7.1h-7.68V-49h7.63z" stroke="#fff" stroke-opacity="0" fill="#fff"/><path d="M221.8-53.15c-.07-2.44-1.57-4.47-3.86-5.3-1.58-.46-3.16-.13-4.4.9-.68-1.45-1.47-2.6-2.6-3.75-3.24-3.35-7.94-4.28-12.18-2.4-4.04 1.9-6.4 5.64-6.54 10.06v.7c-3.4.97-5.65 4.08-5.5 7.65v.64c.4 4.28 3.92 7.52 8.2 7.46h26.02s7.4-.63 7.4-8.1c.04-3.9-2.66-7.2-6.53-7.85zm-.95 14.4h-25.92c-3.45.04-6.28-2.54-6.58-5.97v-.52c-.16-3.05 1.92-5.7 4.9-6.3.4-.12.64-.48.6-.9-.04-.4-.04-.73 0-1.15.08-3.78 2.12-6.93 5.53-8.58 1.25-.58 2.4-.82 3.83-.85 2.63.08 4.88 1.04 6.7 2.94 1.26 1.3 2.05 2.6 2.63 4.32.04.13.13.27.25.35.37.28.87.2 1.12-.16.84-1.17 2.25-1.67 3.62-1.28 1.8.7 2.87 2.4 2.83 4.3-.08.42.2.83.63.92 3.58.35 6.2 3.54 5.82 7.1-.3 3.14-2.7 5.52-5.82 5.85z" stroke="#fff" stroke-opacity="0" fill="#fff"/><use xlink:href="#a" transform="matrix(1,0,0,1,250.54115256205523,-58.89200174190739) translate(0 14.4)"/><path d="M581.1 16.47h403.14v1239.7H581.1z" fill="#147eba" fill-opacity=".13"/><path d="M581.1 16.47h56v56h-56v-56z" stroke="#fff" stroke-opacity="0" fill="#147eba"/><path d="M624.47 38.64c-.16-.16-.34-.24-.56-.24h-5.14v-5.58c-.03-2.54-.97-4.7-2.84-6.4-1.9-1.84-4.15-2.75-6.77-2.75-2.65 0-4.9.83-6.8 2.62-1.9 1.7-2.87 3.86-2.9 6.4v5.65h-5.15c-.25 0-.44.1-.6.25-.15.17-.2.34-.2.6v25.28c0 .4.33.8.8.8h29.58c.47 0 .8-.4.8-.8v-25.3c0-.2-.05-.37-.2-.54zM601 32.74c.04-2.12.82-3.87 2.38-5.3 1.62-1.48 3.52-2.2 5.74-2.2 2.2 0 4.12.76 5.7 2.26 1.54 1.4 2.32 3.2 2.32 5.32v5.58h-16.16zm22.1 30.95h-28.02V39.97h28.02z" stroke="#fff" stroke-opacity="0" fill="#fff"/><path d="M608.28 53.78v6.24h1.6V53.8c2.14-.4 3.63-2.2 3.64-4.36 0-2.43-1.98-4.4-4.42-4.43-2.2-.02-4.05 1.5-4.42 3.7-.4 2.4 1.2 4.67 3.6 5.08zm.82-7.16c.8 0 1.45.27 2 .82.55.56.83 1.22.82 2 .02 1.55-1.2 2.8-2.75 2.82h-.07c-1.55.12-2.92-1.05-3.03-2.6-.12-1.57 1.05-2.94 2.6-3.04.16-.02.28-.02.43 0z" stroke="#fff" stroke-opacity="0" fill="#fff"/><use xlink:href="#b" transform="matrix(1,0,0,1,652.0877793007068,36.46884048559514) translate(0 12.444444444444446)"/><use xlink:href="#c" transform="matrix(1,0,0,1,652.0877793007068,36.46884048559514) translate(56.129629629629626 12.444444444444446)"/><use xlink:href="#d" transform="matrix(1,0,0,1,652.0877793007068,36.46884048559514) translate(112.99382716049382 12.444444444444446)"/><path d="M1005.4 16.47h381.18v1239.7H1005.4z" fill="#147eba" fill-opacity=".13"/><path d="M1005.4 16.47h56v56h-56v-56z" stroke="#fff" stroke-opacity="0" fill="#147eba"/><path d="M1048.8 38.64c-.16-.16-.35-.24-.57-.24h-5.15v-5.58c-.03-2.54-.96-4.7-2.83-6.4-1.9-1.84-4.15-2.75-6.78-2.75-2.65 0-4.9.83-6.8 2.62-1.9 1.7-2.87 3.86-2.9 6.4v5.65h-5.15c-.25 0-.43.1-.6.25-.15.17-.2.34-.2.6v25.28c0 .4.34.8.8.8h29.58c.47 0 .8-.4.8-.8v-25.3c0-.2-.05-.37-.2-.54zm-23.47-5.9c.03-2.12.8-3.87 2.37-5.3 1.62-1.48 3.53-2.2 5.74-2.2 2.22 0 4.12.76 5.7 2.26 1.54 1.4 2.32 3.2 2.32 5.32v5.58h-16.16zm22.1 30.95h-28.03V39.97h28.02z" stroke="#fff" stroke-opacity="0" fill="#fff"/><path d="M1032.6 53.78v6.24h1.6V53.8c2.14-.4 3.64-2.2 3.64-4.36 0-2.43-1.97-4.4-4.4-4.43-2.2-.02-4.06 1.5-4.44 3.7-.4 2.4 1.2 4.67 3.6 5.08zm.83-7.16c.78 0 1.44.27 2 .82.54.56.82 1.22.8 2 .03 1.55-1.2 2.8-2.74 2.82h-.07c-1.56.12-2.92-1.05-3.04-2.6-.12-1.57 1.04-2.94 2.6-3.04.15-.02.28-.02.43 0z" stroke="#fff" stroke-opacity="0" fill="#fff"/><use xlink:href="#b" transform="matrix(1,0,0,1,1076.4119133235702,36.468840485595024) translate(0 12.444444444444446)"/><use xlink:href="#c" transform="matrix(1,0,0,1,1076.4119133235702,36.468840485595024) translate(56.129629629629626 12.444444444444446)"/><use xlink:href="#e" transform="matrix(1,0,0,1,1076.4119133235702,36.468840485595024) translate(112.99382716049382 12.444444444444446)"/><path d="M1407.76 16.47h360v1239.7h-360z" fill="#147eba" fill-opacity=".13"/><path d="M1407.76 16.47h56v56h-56v-56z" stroke="#fff" stroke-opacity="0" fill="#147eba"/><path d="M1451.14 38.64c-.15-.16-.34-.24-.56-.24h-5.15v-5.58c-.03-2.54-.97-4.7-2.84-6.4-1.9-1.84-4.16-2.75-6.78-2.75-2.65 0-4.9.83-6.8 2.62-1.9 1.7-2.87 3.86-2.9 6.4v5.65h-5.15c-.25 0-.44.1-.6.25-.15.17-.2.34-.2.6v25.28c0 .4.33.8.8.8h29.58c.47 0 .8-.4.8-.8v-25.3c0-.2-.05-.37-.2-.54zm-23.46-5.9c.03-2.12.8-3.87 2.37-5.3 1.62-1.48 3.53-2.2 5.74-2.2 2.2 0 4.1.76 5.7 2.26 1.53 1.4 2.3 3.2 2.3 5.32v5.58h-16.15zm22.1 30.95h-28.03V39.97h28.02z" stroke="#fff" stroke-opacity="0" fill="#fff"/><path d="M1434.96 53.78v6.24h1.6V53.8c2.13-.4 3.62-2.2 3.63-4.36 0-2.43-2-4.4-4.42-4.43-2.2-.02-4.06 1.5-4.43 3.7-.4 2.4 1.2 4.67 3.6 5.08zm.82-7.16c.78 0 1.44.27 2 .82.54.56.82 1.22.8 2 .03 1.55-1.2 2.8-2.74 2.82h-.06c-1.56.12-2.92-1.05-3.04-2.6-.12-1.57 1.05-2.94 2.6-3.04.16-.02.28-.02.44 0z" stroke="#fff" stroke-opacity="0" fill="#fff"/><use xlink:href="#b" transform="matrix(1,0,0,1,1478.7592070278984,36.468840485595024) translate(0 12.444444444444446)"/><use xlink:href="#c" transform="matrix(1,0,0,1,1478.7592070278984,36.468840485595024) translate(56.129629629629626 12.444444444444446)"/><use xlink:href="#f" transform="matrix(1,0,0,1,1478.7592070278984,36.468840485595024) translate(112.99382716049382 12.444444444444446)"/><path d="M200.72 16.47h338.82v1239.7H200.72z" fill="#248814" fill-opacity=".13"/><path d="M200.72 16.47h56v56h-56v-56z" stroke="#fff" stroke-opacity="0" fill="#248814"/><path d="M244.1 38.64c-.16-.16-.34-.24-.56-.24h-5.15v-5.58c-.04-2.54-.98-4.7-2.85-6.4-1.9-1.84-4.15-2.75-6.77-2.75-2.65 0-4.9.83-6.8 2.62-1.9 1.7-2.87 3.86-2.9 6.4v5.65h-5.15c-.25 0-.44.1-.6.25-.15.17-.2.34-.2.6v25.28c0 .4.33.8.8.8h29.58c.47 0 .82-.4.82-.8v-25.3c0-.2-.06-.37-.22-.54zm-23.46-5.9c.03-2.12.8-3.87 2.37-5.3 1.63-1.48 3.53-2.2 5.75-2.2 2.2 0 4.12.76 5.7 2.26 1.54 1.4 2.32 3.2 2.32 5.32v5.58H220.6zm22.1 30.95H214.7V39.97h28.03z" stroke="#fff" stroke-opacity="0" fill="#fff"/><path d="M227.9 53.78v6.24h1.62V53.8c2.12-.4 3.62-2.2 3.63-4.36 0-2.43-1.98-4.4-4.42-4.43-2.2-.02-4.05 1.5-4.42 3.7-.4 2.4 1.2 4.67 3.6 5.08zm.83-7.16c.8 0 1.45.27 2 .82.55.56.83 1.22.82 2 0 1.55-1.2 2.8-2.75 2.82h-.07c-1.55.12-2.92-1.05-3.03-2.6-.12-1.57 1.05-2.94 2.6-3.04.16-.02.28-.02.43 0z" stroke="#fff" stroke-opacity="0" fill="#fff"/><use xlink:href="#g" transform="matrix(1,0,0,1,271.7173259149147,36.468840485595024) translate(0 14.4)"/><use xlink:href="#h" transform="matrix(1,0,0,1,271.7173259149147,36.468840485595024) translate(53.900000000000006 14.4)"/><path d="M617.35 147.98c-4.2 0-7.2-3.5-7.2-7.9s3-7.88 7.2-7.88c3.9 0 7.18 3.48 7.18 7.9 0 4.4-3.3 7.88-7.18 7.88zm0-13.63c-3 0-5.1 2.46-5.1 5.74 0 3.26 2.1 5.78 5.1 5.78 2.7 0 5.08-2.52 5.08-5.8 0-3.22-2.4-5.73-5.08-5.73zM626.32 136.6h2.1v1.08c.9-.82 1.8-1.23 3-1.23 2.68 0 5.08 2.5 5.08 5.74 0 3.16-2.4 5.72-5.1 5.72-1.2 0-2.08-.35-2.98-1.07v5.43h-2.1zm2.1 3.08v5.02c.6.82 1.5 1.33 2.7 1.33 2.1 0 3.28-1.64 3.28-3.84 0-2.17-1.2-3.86-3.3-3.86-1.2 0-2.08.47-2.68 1.34zM643.08 147.98c-3 0-5.1-2.57-5.1-5.8 0-3.22 2.1-5.73 4.8-5.73 3 0 5.1 2.56 5.1 5.84v.6h-8.1c.3 1.85 1.8 3.23 3.6 3.18.9.05 1.8-.3 2.4-.97l1.2 1.4c-1.2 1-2.4 1.48-3.9 1.48zm-3.3-6.72h6c-.3-1.74-1.5-2.97-3-2.97s-2.7 1.17-3 2.96zM649.66 136.6h1.8v1.13c.9-.92 2.1-1.38 3.3-1.33 2.1 0 3.88 1.8 3.88 4.35v6.97h-2.1v-6.6c0-1.75-.9-2.83-2.4-2.83-1.18 0-2.08.5-2.68 1.43v8h-1.8zM661.04 143.62c1.5 1.6 3 2.36 4.78 2.36 1.8 0 3.3-1.03 3.3-2.5 0-1.4-.9-2.06-2.7-2.42l-2.4-.46c-2.4-.46-3.88-1.74-3.88-3.95 0-2.66 2.1-4.4 5.08-4.4 2.1 0 3.9.66 5.7 2.05l-1.2 1.8c-1.5-1.3-3-1.9-4.5-1.9-1.8 0-3 .92-3 2.25 0 1.28.6 1.84 2.4 2.2l2.4.36c2.7.52 4.2 1.9 4.2 4.26 0 2.82-2.1 4.72-5.4 4.72-2.4 0-4.5-.93-5.98-2.77zM672.7 132.45l2.1-.5v5.78c.9-.92 1.8-1.38 3-1.33 2.4 0 3.88 1.8 3.88 4.35v6.97h-1.8v-6.6c0-1.75-1.2-2.83-2.7-2.83-.88 0-1.78.5-2.38 1.43v8h-2.1zM683.78 133.48c0-.77.6-1.33 1.2-1.4.6 0 1.2.58 1.2 1.35 0 .7-.3 1.38-1.2 1.38-.6 0-1.2-.6-1.2-1.32zm2.1 14.24h-1.8V136.6h1.8zM689.76 136.6v-1.64c0-2.35 1.2-3.58 3.3-3.58.6-.05.9.05 1.5.15v1.9c-.3-.1-.9-.2-1.2-.16-1.2 0-1.5.5-1.5 1.7v1.63h2.7v1.85h-2.7v9.27h-2.1v-9.27h-2.4v-1.85zM697.54 138.45h-2.1v-1.85h2.1v-2.82l2.1-.5v3.32h2.7v1.85h-2.7v6.04c0 1.12.3 1.53 1.5 1.53.3.05.9-.05 1.2-.26v1.85c-.6.2-1.2.3-1.8.3-1.8 0-3-1.02-3-2.92zM719.4 144.34l.9 1.13c-1.5 1.7-3.3 2.56-5.4 2.5-3.9.1-7.18-3.38-7.18-7.73 0-4.35 3-7.94 7.18-8.04 2.1 0 4.2.92 5.4 2.56l-.9 1.18c-1.2-1.44-2.7-2.16-4.5-2.16-3 0-5.4 2.77-5.4 6.36 0 3.58 2.4 6.3 5.4 6.3 1.8 0 3.6-.77 4.5-2.1zM726.57 136.6c2.7 0 5.1 2.46 5.1 5.64 0 3.17-2.4 5.74-5.1 5.74-2.7 0-5.1-2.5-5.1-5.74 0-3.18 2.4-5.64 5.1-5.64zm3.6 5.64c0-2.36-1.5-4.2-3.6-4.2s-3.6 1.84-3.6 4.2c0 2.4 1.5 4.3 3.6 4.3s3.6-1.9 3.6-4.3zM733.75 136.8h1.5v1.3c.6-1.04 1.8-1.5 3-1.5 2.08 0 3.88 1.7 3.88 4.2v6.97h-1.5v-6.6c0-1.95-1.2-3.18-2.7-3.18-1.2 0-2.38.6-2.68 1.68v8.04h-1.5zM745.12 138.2h-2.1v-1.4h2.1v-2.76l1.5-.46v3.23h3v1.4h-3v6.7c0 1.18.6 1.64 1.5 1.64.6 0 1.2-.1 1.5-.3v1.43c-.6.2-1.2.3-1.8.25-1.5 0-2.7-.92-2.7-2.6zM750.8 144.65c0-2.05 1.5-3.33 3.9-3.33.9 0 1.8.2 2.7.7v-1.42c0-1.74-.9-2.67-2.4-2.67-1.2 0-2.1.3-3.3.98l-.3-1.22c1.2-.77 2.4-1.13 3.6-1.13 2.4 0 3.9 1.38 3.9 3.84v7.32h-1.5v-1.08c-.9.93-1.8 1.34-3 1.34-2.1 0-3.6-1.4-3.6-3.33zm3.9 2.05c1.2 0 2.1-.4 2.7-1.3v-2.04c-.6-.6-1.5-.87-2.7-.87-1.5 0-2.7.8-2.7 2.1 0 1.22 1.2 2.1 2.7 2.1zM760.98 133.58c0-.56.6-1.08 1.2-1.08s.9.46.9 1.08c0 .6-.3 1.13-.9 1.13-.6 0-1.2-.5-1.2-1.12zm1.8 14.14h-1.5v-10.9h1.5zM765.17 136.8h1.5v1.3c.9-1.04 1.8-1.5 3.3-1.5 2.08 0 3.58 1.7 3.58 4.2v6.97h-1.2v-6.6c0-1.95-1.2-3.18-3-3.18-.9 0-2.08.6-2.68 1.68v8.04h-1.5zM780.73 147.98c-2.7 0-5.08-2.46-5.08-5.54v-.15c0-3.2 2.1-5.65 4.78-5.65 2.7 0 4.8 2.46 4.8 5.64v.5h-8.1c.3 2.15 1.8 3.74 3.6 3.74 1.2 0 2.1-.36 2.7-1.02l.9 1.07c-.9.97-2.1 1.38-3.6 1.38zm-3.6-6.5h6.6c-.3-1.96-1.5-3.44-3.3-3.44-1.8 0-3 1.43-3.3 3.43zM787.32 136.8h1.2v1.54c.6-1.12 1.8-1.8 3-1.8.28 0 .58.06.88.16v1.5c-.3-.16-.6-.2-1.2-.2-1.2 0-2.1.8-2.7 2.24v7.48h-1.18zM798.4 132.45h5.97c2.7 0 4.5 1.74 4.5 4.4 0 2.67-1.8 4.47-4.5 4.47h-4.5v6.4h-1.48zm1.48 1.5v5.88h4.5c1.8 0 3-1.13 3-2.92 0-1.83-1.2-2.9-3-2.9zM812.45 147.72h-1.5v-15.27l1.5-.4zM814.25 144.65c0-2.05 1.5-3.33 3.9-3.33 1.18 0 2.08.2 2.98.7v-1.42c0-1.74-.9-2.67-2.7-2.67-.9 0-1.8.3-3 .98l-.58-1.22c1.5-.77 2.7-1.13 3.9-1.13 2.38 0 3.88 1.38 3.88 3.84v7.32h-1.5v-1.08c-.9.93-1.8 1.34-3.3 1.28-2.1.06-3.58-1.33-3.58-3.27zm3.9 2.05c1.18 0 2.08-.4 2.98-1.3v-2.04c-.9-.6-1.8-.87-2.7-.87-1.8 0-2.7.8-2.7 2.1 0 1.22.9 2.1 2.4 2.1zM825.92 138.2h-2.1v-1.4h2.1v-2.76l1.2-.46v3.23h3v1.4h-3v6.7c0 1.18.6 1.64 1.8 1.64.3 0 .9-.1 1.2-.3v1.43c-.6.2-.9.3-1.5.25-1.8 0-2.7-.92-2.7-2.6zM833.4 136.8v-2.1c0-2.15 1.2-3.32 3-3.32.6 0 .9.05 1.5.2v1.44c-.6-.16-.9-.2-1.2-.2-1.2 0-1.8.6-1.8 1.94v2.05h3v1.4h-3v9.52h-1.5v-9.53H831v-1.4zM843.27 136.6c3 0 5.1 2.46 5.1 5.64 0 3.17-2.1 5.74-5.1 5.74-2.7 0-4.78-2.5-4.78-5.74 0-3.18 2.08-5.64 4.77-5.64zm3.6 5.64c0-2.36-1.5-4.2-3.6-4.2-1.8 0-3.6 1.84-3.6 4.2 0 2.4 1.8 4.3 3.6 4.3 2.1 0 3.6-1.9 3.6-4.3zM850.46 136.8h1.5v1.54c.6-1.12 1.5-1.8 2.7-1.8.28 0 .58.06.88.16v1.5c-.3-.16-.6-.2-.9-.2-1.2 0-2.1.8-2.7 2.24v7.48h-1.48zM857.34 136.8h1.5v1.2c.6-1 1.5-1.45 2.7-1.4 1.48-.05 2.38.67 3.28 1.95.6-1.28 1.8-2.05 3.3-1.95 2.1 0 3.58 1.7 3.58 4.2v6.97h-1.5v-6.6c0-1.95-.9-3.18-2.4-3.18-1.18 0-2.08.6-2.68 1.78v7.99h-1.5v-6.6c0-1.95-.9-3.18-2.4-3.18-1.2 0-1.8.55-2.38 1.57v8.15h-1.5zM677.2 121.44c0 2.46 1.5 3.7 3.88 3.7.9 0 1.5-.12 2.4-.37v-2.87c-.6.15-.9.25-1.5.2-.9 0-1.5-.3-1.5-1.38v-4.46h3v-2.97h-3v-3.8l-3 .77v3.02h-2.38v2.96h2.1zm-9.88.05c0-.78.6-1.2 1.8-1.2.6.06 1.2.1 1.8.32v1.48c-.6.4-1.2.57-1.8.57-1.2 0-1.8-.46-1.8-1.18m.9 3.68c1.2 0 2.1-.26 3-.92v.7h3.28v-7.47c0-2.88-1.8-4.4-4.8-4.4-1.48 0-2.98.4-4.77 1.27l1.2 2.6c1.2-.55 2.1-.9 2.98-.9 1.5 0 2.1.55 2.1 1.73v.56c-.9-.25-1.5-.3-2.38-.3-2.7 0-4.2 1.23-4.2 3.48 0 2.05 1.5 3.64 3.6 3.64m-17.36-.2h3.3v-6.05h5.98v6.04h3.3V109.5h-3.3v5.94h-6v-5.94h-3.28zm-13.17-5.85c0-1.7 1.2-2.97 3-2.97.58 0 1.48.26 2.08.92v4.05c-.6.67-1.5.97-2.1.97-1.8 0-3-1.28-3-2.97m5.1 5.84h3.3v-16.24l-3.3.77v4.4c-.9-.56-1.8-.76-2.7-.76-2.98 0-5.38 2.6-5.38 6v.1c0 3.27 2.4 5.9 5.4 5.9.9 0 1.78-.32 2.68-1.04zM628.12 116c1.2 0 2.1.72 2.4 1.85H626c.3-1.18 1.2-1.84 2.1-1.84m-5.4 3.13c0 3.43 2.7 6.1 5.7 6.1 1.8 0 3.3-.56 4.5-1.8l-2.1-2.1c-.6.57-1.2.88-2.1.88-1.2.06-2.1-.66-2.7-1.84h7.48v-.87c0-3.75-2.1-6.4-5.08-6.4h-.3c-3 0-5.4 2.7-5.4 6.03m-5.37-6.4c1.2 0 1.8.82 1.8 1.8 0 .9-.6 1.73-1.8 1.73h-3.6v-3.53zm-6.9 12.24h3.3v-5.63h2.7l2.7 5.63h3.88l-3.3-6.2c1.8-.7 2.7-2.4 2.7-4.35 0-2.77-1.8-4.92-4.8-4.92h-7.17zM603.28 116.93v-.46-.1-.52l-2.4.98c-.3-2.1-.6-3.9-1.5-5.8l4.5-1.8c-.3-.7-.6-1.27-.9-1.88-.3-.15-.3-.3-.3-.4l-2.1.8c-2.98-4.7-7.77-7.1-12.86-6.65-8.08.72-13.76 8.4-13.17 17.2l3-1.27-.9.4v.58c0 .77 0 1.4.3 2.1l4.8-1.9c0-.6-.3-1.07-.3-1.68v-.5-.06-.52l-2.1.82c.6-5.68 5.08-10 10.17-9.58 2.4.2 4.2 1.23 5.98 3.13l2.7-1.12-.6.26c0 .15.3.3.3.4 0 .16.3.26.3.42.3.46.6.87.9 1.38l-4.5 1.84c.9 1.85 1.2 3.7 1.2 5.84l4.8-1.94-2.4 1.02V118.57c-.3.15-.3.3-.3.46v.1c0 .4 0 .77-.3 1.13 0 .46-.3.82-.3 1.23-2.1 5.2-7.78 7.47-12.57 5-.3-.14-.6-.35-.9-.55-.3-.26-.6-.47-.9-.72v-.05c-.3-.1-.3-.2-.3-.3l-.3-.1c0-.1 0-.27-.3-.42l-2.4.97c-1.2-1.54-2.08-3.23-2.38-5.33l-4.8 1.95c.6 2.05 1.2 3.7 2.4 5.43l2.1-.97c.3.16.3.26.3.42l.3.1v.36l.3.05c0 .15 0 .26.3.36v.04c0 .1 0 .26.3.36v.05c1.2 1.54 2.7 2.56 4.18 3.48 7.18 3.7 15.86.26 19.15-7.78.9-2.26 1.5-4.36 1.5-6.87z" stroke="#000" stroke-opacity="0" stroke-width=".19"/><path d="M334.97 694.97c-30.34 0-54.97 24.63-54.97 54.97 0 30.35 24.63 54.98 54.97 54.98 30.35 0 54.97-24.63 54.97-54.98 0-30.34-24.62-54.97-54.97-54.97zm0 105.55c-27.92 0-50.57-22.65-50.57-50.58 0-27.92 22.65-50.57 50.57-50.57 27.93 0 50.58 22.65 50.58 50.57 0 27.93-22.65 50.58-50.58 50.58z" stroke="#fff" stroke-opacity="0" stroke-width="3" fill="#693cc5"/><path d="M315.2 763.14h-22.02c-1.2 0-2.2-.98-2.2-2.2v-22c0-1.2 1-2.2 2.2-2.2h22c1.22 0 2.2 1 2.2 2.2v22c0 1.22-.98 2.2-2.2 2.2zm-19.8-4.4h17.57v-17.58H295.4zM365.76 734.55h-13.2c-1.2 0-2.2-.98-2.2-2.2v-13.2c0-1.2 1-2.2 2.2-2.2h13.2c1.2 0 2.2 1 2.2 2.2v13.2c0 1.22-1 2.2-2.2 2.2zm-11-4.4h8.8v-8.8h-8.8zM365.76 758.74h-13.2c-1.2 0-2.2-.98-2.2-2.2v-13.2c0-1.2 1-2.2 2.2-2.2h13.2c1.2 0 2.2 1 2.2 2.2v13.2c0 1.22-1 2.2-2.2 2.2zm-11-4.4h8.8v-8.8h-8.8zM365.76 782.93h-13.2c-1.2 0-2.2-1-2.2-2.2v-13.2c0-1.2 1-2.2 2.2-2.2h13.2c1.2 0 2.2 1 2.2 2.2v13.2c0 1.2-1 2.2-2.2 2.2zm-11-4.4h8.8v-8.8h-8.8zM347.52 751.5l-7.4 7.4-3.1-3.1 3.63-3.65h-18.87v-4.4h18.87l-3.64-3.66 3.13-3.1 7.4 7.4c.86.85.86 2.22 0 3.1zM346.3 726.88l-2.7 10.1-4.22-1.15 1.4-5.24-19.5 10.3-2.05-3.88 19.03-10.06-4.73-1.2 1.14-4.4 10.12 2.73c1.16.3 1.87 1.5 1.54 2.67 0 .04 0 .08-.03.1zM344.8 775.73l-10.1 2.8-1.18-4.4 4.73-1.3-19.04-10.05 2.05-3.86 19.5 10.3-1.38-5.16 4.25-1.14 2.72 10.1c.32 1.16-.38 2.37-1.55 2.7z" stroke="#fff" stroke-opacity="0" stroke-width="3" fill="#693cc5"/><g><use xlink:href="#i" transform="matrix(1,0,0,1,250,813.916978222929) translate(4.400000000000006 14.4)"/><use xlink:href="#j" transform="matrix(1,0,0,1,250,813.916978222929) translate(49.7 14.4)"/><use xlink:href="#k" transform="matrix(1,0,0,1,250,813.916978222929) translate(94.7 14.4)"/></g><path d="M390.94 749.94h93.72" stroke="#248814" stroke-width="2" fill="none"/><path d="M390.97 750.94h-1.04v-1l-.03-1h1.07z" fill="#248814"/><path d="M499.93 749.94l-14.27 4.64v-9.27z" stroke="#248814" stroke-width="2" fill="#248814"/><g class="lucid-layer" lucid:layer-id="-QuS0aksvo6h" display="block"><path d="M976.23 922.55c-.92.1-1.65.27-2.38.63l-31.7 15.63c-1.73.83-2.92 2.3-3.3 4.2l-7.84 35.18c-.36 1.64-.1 3.3.83 4.75.1.18.18.27.36.46l21.92 28.12c1.2 1.55 2.83 2.38 4.75 2.38h35.26c1.92 0 3.57-.83 4.75-2.38l21.93-28.13c1.2-1.57 1.65-3.4 1.2-5.3l-7.86-35.1c-.37-1.9-1.55-3.37-3.3-4.2l-31.7-15.62c-1-.45-1.9-.73-2.9-.63z" stroke="#000" stroke-opacity="0" stroke-width="3.83" fill="#326ce5"/><path d="M976.2 920c-.95.1-1.72.3-2.5.68l-33.46 16.5c-1.83.85-3.08 2.4-3.47 4.42l-8.3 37.13c-.38 1.74-.1 3.47.87 5.02.1.2.2.28.4.48l23.13 29.7c1.26 1.64 3 2.5 5.02 2.5h37.2c2.04 0 3.78-.86 5.03-2.5l23.14-29.7c1.26-1.64 1.74-3.57 1.26-5.5l-8.3-37.13c-.38-2.02-1.64-3.57-3.47-4.43l-33.46-16.5c-1.06-.48-2.03-.77-3.1-.67zm0 2.6c1.07-.1 1.94.1 2.9.58l31.83 15.63c1.64.87 2.8 2.32 3.28 4.25l7.82 35.1c.4 1.93 0 3.67-1.16 5.2l-21.98 28.17c-1.16 1.54-2.8 2.4-4.73 2.4h-35.3c-1.92 0-3.56-.86-4.72-2.4l-22-28.16c-.1-.1-.18-.3-.28-.48-.96-1.45-1.25-3-.87-4.73l7.8-35.1c.5-1.93 1.56-3.38 3.3-4.24l31.82-15.62c.77-.38 1.44-.58 2.3-.67z" stroke="#000" stroke-opacity="0" stroke-width="3.83" fill="#fff"/><path d="M968.67 1002.03c0 1.1.16 1.9.5 2.43.33.52.84.78 1.5.78.48 0 .87-.13 1.18-.4.32-.26.52-.66.6-1.2l1.33.08c-.1.8-.42 1.43-.98 1.9-.54.46-1.24.7-2.1.7-1.1 0-1.96-.36-2.54-1.08-.6-.73-.88-1.8-.88-3.2 0-1.37.3-2.42.88-3.15.6-.73 1.44-1.1 2.53-1.1.8 0 1.5.22 2.02.66.54.43.88 1.03 1.02 1.8l-1.36.1c-.07-.45-.25-.82-.53-1.08-.28-.28-.67-.4-1.2-.4-.7 0-1.2.23-1.52.7-.3.5-.46 1.3-.46 2.45zM979.84 1006.17v-5.2c0-.8-.1-1.35-.32-1.65-.2-.3-.6-.46-1.14-.46-.56 0-1 .23-1.33.67-.34.44-.5 1.07-.5 1.88v4.77h-1.32v-6.46c0-.95 0-1.53-.04-1.74h1.23l.02.2.02.4.03.8h.02c.28-.58.6-1 .98-1.2.37-.24.82-.35 1.34-.35.6 0 1.1.13 1.44.37.35.25.6.65.73 1.2h.03c.28-.56.62-.95 1-1.2.4-.24.86-.36 1.42-.36.8 0 1.4.23 1.76.68.38.45.56 1.2.56 2.22v5.47h-1.3v-5.2c0-.8-.12-1.35-.33-1.65-.2-.3-.6-.46-1.14-.46-.6 0-1.05.23-1.37.67-.3.44-.48 1.07-.48 1.88v4.77z" stroke="#000" stroke-opacity="0" fill="#fff"/><path d="M967.65 946v4.38h31.14V946zM954.2 946v4.38h7.8V946zM978.97 957.68v4.37h19.83v-4.37z" stroke="#000" stroke-opacity="0" stroke-width="3.77" fill="#fff"/><path d="M965.53 957.68v4.37h7.8v-4.37zM978.97 969.35v4.37h19.83v-4.37zM965.53 969.35v4.37h7.8v-4.37zM967.65 981v4.37h31.14V981zM954.2 981v4.37h7.8V981z" stroke="#000" stroke-opacity="0" stroke-width="2.99" fill="#fff"/><use xlink:href="#l" transform="matrix(1,0,0,1,898.2829974677805,1025.437761558135) translate(28.025 14.4)"/><use xlink:href="#m" transform="matrix(1,0,0,1,898.2829974677805,1025.437761558135) translate(81.025 14.4)"/><path d="M860.65 618.64h525.93V887.4H860.65z" stroke="#000" stroke-width="2" fill-opacity="0"/><path d="M845.65 570.72c-1.2.12-2.15.36-3.1.84l-41.4 20.4c-2.28 1.08-3.83 3-4.3 5.5l-10.28 45.94c-.47 2.15-.1 4.3 1.08 6.2.12.25.24.37.48.6l28.64 36.76c1.55 2.03 3.7 3.1 6.2 3.1h46.07c2.5 0 4.66-1.07 6.2-3.1l28.65-36.75c1.54-2.02 2.14-4.4 1.54-6.92l-10.26-45.82c-.48-2.5-2.03-4.42-4.3-5.5l-41.4-20.4c-1.32-.6-2.52-.95-3.83-.84z" stroke="#000" stroke-opacity="0" stroke-width="3.83" fill="#326ce5"/><path d="M845.63 567.4c-1.26.13-2.26.38-3.27.88l-43.72 21.54c-2.4 1.14-4.03 3.15-4.54 5.8l-10.83 48.5c-.5 2.27-.13 4.54 1.13 6.56.13.25.26.37.5.63l30.24 38.8c1.64 2.15 3.9 3.3 6.56 3.3h48.63c2.64 0 4.9-1.15 6.55-3.3l30.23-38.8c1.65-2.14 2.28-4.66 1.65-7.17l-10.83-48.5c-.5-2.66-2.14-4.67-4.54-5.8l-43.72-21.55c-1.38-.63-2.64-1-4.03-.88zm0 3.4c1.4-.13 2.52.13 3.78.76l41.6 20.4c2.13 1.14 3.64 3.03 4.27 5.55l10.2 45.87c.5 2.52 0 4.8-1.5 6.8l-28.73 36.8c-1.5 2-3.65 3.14-6.17 3.14h-46.1c-2.53 0-4.68-1.12-6.2-3.14l-28.7-36.8c-.14-.1-.26-.37-.4-.62-1.25-1.9-1.63-3.9-1.12-6.17l10.2-45.86c.63-2.5 2.02-4.4 4.28-5.53l41.58-20.4c1.02-.52 1.9-.77 3.03-.9z" stroke="#000" stroke-opacity="0" stroke-width="3.83" fill="#fff"/><path d="M839.74 674.56c0 3.74-1.28 5.62-3.83 5.62-1.6 0-2.68-.62-3.23-1.88h-.04c.03.06.03.62.03 1.7v4.2h-1.72v-12.77c0-1.1-.03-1.84-.07-2.2h1.68l.03.3.04.75.03.68h.03c.3-.65.72-1.14 1.23-1.44.5-.32 1.18-.47 2-.47 1.3 0 2.25.44 2.88 1.33.64.88.96 2.27.96 4.18zm-1.82.03c0-1.5-.2-2.57-.58-3.2-.4-.66-1.02-.97-1.87-.97-.7 0-1.23.15-1.62.45-.4.3-.68.76-.88 1.4-.2.6-.3 1.45-.3 2.45 0 1.42.22 2.45.65 3.12.43.66 1.14 1 2.13 1 .86 0 1.48-.32 1.87-.97.4-.66.6-1.75.6-3.3zM850.7 674.6c0 1.88-.4 3.28-1.2 4.2-.8.92-1.96 1.37-3.5 1.37-1.5 0-2.65-.47-3.43-1.42-.78-.97-1.17-2.35-1.17-4.15 0-3.7 1.56-5.56 4.68-5.56 1.6 0 2.75.46 3.5 1.36.76.9 1.13 2.3 1.13 4.2zm-1.8 0c0-1.48-.23-2.56-.66-3.23-.42-.67-1.13-1-2.14-1-1 0-1.75.33-2.2 1.02-.45.67-.68 1.74-.68 3.2 0 1.4.22 2.48.67 3.2.44.7 1.14 1.05 2.1 1.05 1.03 0 1.78-.33 2.22-1.02.44-.7.68-1.77.68-3.23zM859.45 678.25c-.32.68-.75 1.18-1.28 1.48-.53.3-1.2.44-1.97.44-1.3 0-2.28-.46-2.9-1.37-.62-.9-.93-2.3-.93-4.15 0-3.74 1.28-5.6 3.83-5.6.8 0 1.45.14 1.98.44.52.3.95.77 1.27 1.4v-5.65h1.72v12.5c0 1.13.03 1.87.07 2.23h-1.66c-.02-.1-.04-.36-.06-.75-.02-.37-.04-.7-.04-.98zm-5.26-3.66c0 1.5.18 2.57.57 3.22.4.65 1 .98 1.88.98.98 0 1.7-.36 2.13-1.06.44-.7.67-1.8.67-3.27 0-1.4-.23-2.46-.67-3.1-.44-.67-1.14-1-2.12-1-.87 0-1.5.33-1.9 1-.38.66-.57 1.73-.57 3.22z" stroke="#000" stroke-opacity="0" fill="#fff"/><path d="M820.73 609.6l25.28-7.56 25.3 7.56-25.3 7.56zM820.73 612.5v27.72l23.55 13.46.12-33.94zM871.3 612.5v27.72l-23.56 13.46-.12-33.94z" stroke="#000" stroke-opacity="0" stroke-width="3.77" fill="#fff"/><path d="M1200 668.1h79.47v79.46H1200zM909 647.4h200v180.85H909z" stroke="#000" stroke-width="2" fill="#fff"/><use xlink:href="#n" transform="matrix(1,0,0,1,914.0042589517759,652.3992306088841) translate(62.407407407407405 78.33680555555556)"/><use xlink:href="#o" transform="matrix(1,0,0,1,914.0042589517759,652.3992306088841) translate(55.685185185185176 107.6701388888889)"/><path d="M973.4 782.2c-.78.08-1.42.24-2.05.56l-27.47 13.54c-1.5.7-2.53 1.97-2.85 3.64l-6.8 30.47c-.32 1.44-.08 2.86.7 4.13.1.16.17.23.33.4l19 24.37c1.02 1.35 2.45 2.06 4.1 2.06h30.56c1.67 0 3.1-.7 4.12-2.06l19-24.38c1.03-1.34 1.42-2.93 1.03-4.6l-6.8-30.38c-.33-1.67-1.36-2.93-2.86-3.64l-27.46-13.54c-.87-.4-1.66-.63-2.53-.55z" stroke="#000" stroke-opacity="0" stroke-width="3.83" fill="#326ce5"/><path d="M973.4 780c-.84.08-1.5.25-2.18.58l-29 14.3c-1.58.75-2.67 2.08-3 3.84l-7.2 32.17c-.32 1.5-.07 3 .77 4.33.07.17.15.26.32.42l20.05 25.74c1.1 1.4 2.6 2.16 4.35 2.16h32.26c1.75 0 3.25-.75 4.34-2.17l20.06-25.75c1.08-1.42 1.5-3.1 1.08-4.76l-7.18-32.18c-.34-1.76-1.43-3.1-3-3.85l-29-14.3c-.93-.4-1.76-.65-2.68-.57zm0 2.26c.92-.1 1.67.08 2.5.5l27.58 13.53c1.42.75 2.42 2 2.84 3.67l6.77 30.42c.32 1.66 0 3.16-1 4.5l-19.07 24.4c-1 1.34-2.42 2.1-4.1 2.1h-30.57c-1.68 0-3.1-.76-4.1-2.1l-19.05-24.4c-.07-.08-.16-.25-.24-.42-.84-1.25-1.1-2.6-.75-4.1l6.77-30.4c.42-1.68 1.34-2.93 2.85-3.7l27.57-13.52c.66-.34 1.24-.5 2-.6z" stroke="#000" stroke-opacity="0" stroke-width="3.83" fill="#fff"/><path d="M969.58 854.67h-1.36l-2.5-7.12h1.22l1.52 4.63.44 1.56.22-.77.25-.77 1.57-4.65h1.22zM978.92 851.1c0 1.25-.26 2.18-.8 2.78-.52.62-1.3.92-2.3.92-1.02 0-1.78-.32-2.3-.95-.5-.64-.77-1.55-.77-2.75 0-2.46 1.03-3.68 3.1-3.68 1.05 0 1.83.3 2.33.9.5.6.74 1.53.74 2.78zm-1.2 0c0-.98-.15-1.7-.43-2.14-.3-.44-.77-.66-1.43-.66-.68 0-1.16.22-1.47.67-.3.45-.45 1.16-.45 2.13 0 .94.15 1.65.45 2.12.3.47.76.7 1.4.7.68 0 1.18-.22 1.47-.68.3-.46.45-1.17.45-2.14zM980.36 854.67v-9.77h1.15v9.77z" stroke="#000" stroke-opacity="0" fill="#fff"/><path d="M952.2 813.5c0 2.98 9.6 5.4 21.45 5.4 11.83 0 21.44-2.42 21.44-5.4v14.54c0 2.96-9.62 5.37-21.45 5.37-11.84 0-21.44-2.4-21.44-5.36z" stroke="#000" stroke-opacity="0" stroke-width="3.77" fill="#fff"/><path d="M952.2 813.5c0-2.95 9.6-5.36 21.45-5.36 11.83 0 21.44 2.4 21.44 5.37 0 2.98-9.62 5.38-21.45 5.38-11.84 0-21.44-2.4-21.44-5.37z" stroke="#000" stroke-opacity="0" stroke-width="3.77" fill="#fff"/><path d="M973.64 807.5c-5.95 0-11.33.62-15.3 1.6-2 .5-3.58 1.1-4.77 1.78-1.14.7-1.98 1.54-1.98 2.63v14.55c0 1.08.83 1.93 1.97 2.62 1.2.7 2.78 1.28 4.77 1.78 3.97.98 9.35 1.6 15.3 1.6 5.96 0 11.34-.62 15.3-1.6 2-.5 3.58-1.1 4.77-1.78 1.16-.7 2-1.54 2-2.62V813.5c0-1.08-.84-1.93-2-2.62-1.18-.7-2.77-1.27-4.75-1.78-3.97-.98-9.35-1.6-15.3-1.6zm0 1.28c5.87 0 11.2.6 15 1.54 1.94.48 3.44 1.06 4.46 1.65 1 .58 1.36 1.17 1.36 1.54 0 .4-.35.96-1.36 1.55-1.02.6-2.52 1.16-4.46 1.64-3.8.95-9.13 1.56-15 1.56-5.86 0-11.2-.6-15-1.57-1.94-.5-3.44-1.04-4.45-1.65-1.02-.6-1.38-1.15-1.38-1.54 0-.36.36-.95 1.37-1.53 1-.6 2.5-1.17 4.45-1.65 3.8-.95 9.13-1.54 15-1.54zm-20.82 6.37c.18.37.36.7.75 1 1.1.83 2.78 1.28 4.77 1.8 3.97.97 9.35 1.55 15.3 1.55 5.96 0 11.34-.58 15.3-1.56 2-.5 3.58-1.1 4.77-1.78.45-.32.63-.72.76-1v12.9c0 .36-.35.94-1.36 1.52-1.02.6-2.52 1.17-4.46 1.65-3.8.95-9.13 1.54-15 1.54-5.86 0-11.2-.6-15-1.54-1.94-.48-3.44-1.06-4.45-1.65-1.02-.58-1.38-1.16-1.38-1.53z" stroke="#000" stroke-opacity="0" stroke-width="3.77" fill="#326ce5"/><path d="M977.5 919.02c0 .55-.45 1-1 1s-1-.45-1-1 .45-1 1-1 1 .45 1 1zm0-4.1c0 .55-.45 1-1 1s-1-.45-1-1c0-.56.45-1 1-1s1 .44 1 1zm0-4.1c0 .54-.45 1-1 1s-1-.46-1-1c0-.56.45-1 1-1s1 .44 1 1zm0-4.12c0 .56-.45 1-1 1s-1-.44-1-1c0-.55.45-1 1-1s1 .45 1 1zm0-4.1c0 .55-.45 1-1 1s-1-.45-1-1c0-.56.45-1 1-1s1 .44 1 1zm0-4.1c0 .54-.45 1-1 1s-1-.46-1-1c0-.56.45-1 1-1s1 .44 1 1zm0-4.12c0 .56-.45 1-1 1s-1-.44-1-1c0-.55.45-1 1-1s1 .45 1 1zm0-4.1c0 .55-.45 1-1 1s-1-.45-1-1c0-.56.45-1 1-1s1 .44 1 1zm0-4.1c0 .54-.45 1-1 1s-1-.46-1-1c0-.56.45-1 1-1s1 .44 1 1z"/><path d="M977.5 920.1l-1.3-.1-.7.12V919h2z"/><path d="M976.5 866.8l4.64 14.26h-9.27z" stroke="#000" stroke-width="2"/><path d="M1220 688.1h79.47v79.46H1220z" stroke="#000" stroke-width="2" fill="#fff"/><path d="M1240 708.1h79.47v79.46H1240z" stroke="#000" stroke-width="2" fill="#fff"/><path d="M1260 728.1h79.47v79.46H1260z" stroke="#000" stroke-width="2" fill="#fff"/><use xlink:href="#p" transform="matrix(1,0,0,1,1265,733.0875815632213) translate(-0.8209876543209873 38.111111111111114)"/><path d="M1451.07 320.8h200v120h-200z" stroke="#000" stroke-width="2" fill="#ffdba9"/><path d="M1427.54 363.67h240v60h-240z" stroke="#000" stroke-opacity="0" stroke-width="2" fill="#fff" fill-opacity="0"/><use xlink:href="#q" transform="matrix(1,0,0,1,1432.5369148474026,368.6683373580688) translate(52.64999999999999 30.025)"/><path d="M1455.43 282.28c-.82.1-1.48.25-2.13.58l-28.44 14c-1.56.75-2.63 2.06-2.95 3.78l-7.04 31.56c-.33 1.47-.08 2.95.74 4.26.08.16.16.24.32.4l19.67 25.25c1.06 1.4 2.54 2.14 4.26 2.14h31.63c1.7 0 3.2-.74 4.26-2.13l19.67-25.23c1.06-1.4 1.47-3.04 1.06-4.76l-7.06-31.46c-.32-1.72-1.4-3.03-2.95-3.77l-28.45-14c-.9-.42-1.72-.67-2.62-.6z" stroke="#000" stroke-opacity="0" stroke-width="3.83" fill="#326ce5"/><path d="M1455.42 280c-.87.1-1.56.26-2.25.6l-30.03 14.8c-1.64.78-2.76 2.16-3.1 3.98l-7.45 33.3c-.36 1.57-.1 3.13.77 4.5.08.18.17.27.34.44l20.78 26.65c1.12 1.47 2.68 2.25 4.5 2.25h33.4c1.8 0 3.37-.78 4.5-2.25l20.76-26.65c1.12-1.47 1.56-3.2 1.12-4.93l-7.44-33.32c-.34-1.82-1.47-3.2-3.1-3.98l-30.04-14.8c-.95-.43-1.8-.7-2.76-.6zm0 2.34c.95-.1 1.73.08 2.6.52l28.54 14c1.47.8 2.5 2.1 2.95 3.82l7 31.5c.36 1.72 0 3.28-1.02 4.66l-19.73 25.27c-1.04 1.4-2.5 2.17-4.24 2.17h-31.66c-1.73 0-3.2-.78-4.24-2.16l-19.72-25.26c-.1-.08-.18-.26-.26-.43-.87-1.3-1.13-2.67-.78-4.23l7-31.5c.44-1.72 1.4-3.02 2.95-3.8l28.54-14c.7-.36 1.3-.53 2.08-.62z" stroke="#000" stroke-opacity="0" stroke-width="3.83" fill="#fff"/><path d="M1440.97 356.13c-.22.47-.5.8-.88 1-.37.2-.82.32-1.36.32-.9 0-1.57-.32-2-.95-.4-.62-.63-1.57-.63-2.84 0-2.58.9-3.86 2.64-3.86.55 0 1 .1 1.36.3.36.22.65.54.87.98v-3.88h1.2v8.6c0 .76 0 1.27.03 1.5h-1.14l-.04-.5c-.02-.25-.02-.48-.02-.67zm-3.6-2.5c0 1.02.13 1.76.4 2.2.26.45.68.67 1.28.67.67 0 1.16-.24 1.46-.72.32-.48.47-1.23.47-2.25 0-.97-.15-1.7-.46-2.14-.3-.46-.77-.7-1.44-.7-.6 0-1.03.24-1.3.7-.26.45-.4 1.2-.4 2.22zM1444.9 353.9c0 .83.17 1.5.5 1.94.35.46.85.7 1.5.7.5 0 .93-.12 1.24-.33.3-.2.52-.47.63-.8l1.05.3c-.43 1.17-1.4 1.75-2.92 1.75-1.06 0-1.87-.32-2.42-.97-.55-.65-.83-1.62-.83-2.9 0-1.2.28-2.15.83-2.8.55-.65 1.35-.97 2.38-.97 2.1 0 3.15 1.3 3.15 3.92v.17zm3.87-.95c-.06-.78-.25-1.35-.57-1.7-.32-.36-.77-.54-1.36-.54-.58 0-1.04.2-1.38.6-.34.4-.52.95-.54 1.65zM1457.57 353.6c0 2.56-.87 3.85-2.63 3.85-1.1 0-1.84-.43-2.22-1.3h-.03c0 .05.02.44.02 1.17v2.88h-1.2v-8.76c0-.76 0-1.26-.03-1.5h1.14l.02.2c0 .1 0 .27.03.5v.48h.03c.2-.45.5-.78.84-1 .35-.2.8-.3 1.37-.3.9 0 1.54.3 1.98.9.44.6.65 1.56.65 2.87zm-1.24 0c0-1-.14-1.74-.4-2.18-.28-.45-.7-.67-1.3-.67-.46 0-.83.1-1.1.32-.27.2-.47.52-.6.95-.15.43-.2 1-.2 1.7 0 .96.14 1.67.44 2.13.3.46.78.68 1.46.68.6 0 1-.2 1.28-.66.3-.45.43-1.2.43-2.26zM1459.06 357.3v-10.1h1.2v10.1zM1468.12 353.62c0 1.3-.27 2.25-.82 2.88-.55.63-1.36.95-2.4.95-1.05 0-1.83-.33-2.37-.98-.53-.67-.8-1.6-.8-2.85 0-2.55 1.07-3.82 3.2-3.82 1.1 0 1.9.32 2.42.94.5.62.77 1.58.77 2.88zm-1.25 0c0-1.02-.15-1.76-.44-2.22-.3-.46-.78-.7-1.47-.7-.7 0-1.2.24-1.52.72-.3.46-.46 1.2-.46 2.2 0 .97.15 1.7.46 2.2.3.48.8.72 1.44.72.72 0 1.23-.23 1.53-.7.3-.48.47-1.22.47-2.22zM1469.96 360.2c-.33 0-.6-.02-.82-.07v-.92c.17.04.35.05.55.05.73 0 1.32-.56 1.75-1.68l.12-.3-2.84-7.33h1.27l1.5 4.07c.03.08.05.16.1.24 0 .1.1.4.28.9l.27.83.46-1.34 1.58-4.7h1.26l-2.75 7.38c-.3.8-.58 1.37-.84 1.76-.25.38-.54.67-.85.86-.3.2-.65.28-1.04.28z" stroke="#000" stroke-opacity="0" fill="#fff"/><path d="M1453.56 342.07c-11.7.57-21.68-8.7-22.28-20.75-.64-12.1 8.3-22.42 20.03-23.13 11.72-.7 21.77 8.43 22.54 20.52l-8.43.57c-.46-7.3-6.5-12.84-13.58-12.4-7.08.4-12.5 6.64-12.1 13.93.34 7.3 6.4 12.88 13.46 12.58z" stroke="#000" stroke-opacity="0" stroke-width="3.77" fill="#fff"/><path d="M1457.94 318.73l6.7 16.9 15.47-16.9z" stroke="#000" stroke-opacity="0" stroke-width="3.77" fill="#fff"/><path d="M1504.48 542.72c-.98.1-1.76.3-2.54.68l-33.86 16.7c-1.85.87-3.12 2.43-3.5 4.48l-8.4 37.57c-.4 1.75-.1 3.5.87 5.07.1.2.2.3.4.5l23.4 30.05c1.28 1.65 3.04 2.53 5.1 2.53h37.66c2.06 0 3.8-.88 5.08-2.53l23.42-30.06c1.27-1.65 1.76-3.6 1.27-5.65l-8.4-37.47c-.38-2.05-1.65-3.6-3.5-4.5l-33.87-16.68c-1.07-.5-2.05-.78-3.12-.68z" stroke="#000" stroke-opacity="0" stroke-width="3.83" fill="#326ce5"/><path d="M1504.47 540c-1.03.1-1.86.3-2.68.72l-35.76 17.62c-1.96.92-3.3 2.57-3.7 4.74l-8.87 39.66c-.4 1.85-.1 3.7.93 5.35.1.2.2.3.4.5l24.74 31.74c1.33 1.75 3.2 2.68 5.35 2.68h39.76c2.16 0 4-.93 5.35-2.68l24.74-31.73c1.34-1.74 1.85-3.8 1.34-5.86l-8.86-39.66c-.4-2.17-1.75-3.82-3.7-4.74l-35.76-17.62c-1.13-.5-2.16-.82-3.3-.72zm0 2.78c1.13-.1 2.06.1 3.1.62l33.98 16.7c1.75.92 3 2.46 3.5 4.52l8.35 37.5c.4 2.06 0 3.9-1.24 5.56l-23.5 30.08c-1.22 1.65-2.97 2.58-5.03 2.58h-37.7c-2.07 0-3.82-.93-5.06-2.58l-23.48-30.08c-.12-.1-.22-.3-.32-.5-1.03-1.56-1.34-3.2-.93-5.06l8.34-37.5c.5-2.06 1.64-3.6 3.5-4.53l34-16.7c.82-.4 1.54-.62 2.47-.72z" stroke="#000" stroke-opacity="0" stroke-width="3.83" fill="#fff"/><path d="M1496.4 627.62c0 1.17.18 2.03.54 2.6.35.56.9.84 1.6.84.52 0 .93-.14 1.27-.42.35-.3.56-.7.64-1.3l1.43.1c-.1.84-.46 1.52-1.05 2.02-.58.5-1.32.75-2.23.75-1.2 0-2.1-.37-2.74-1.14-.62-.8-.94-1.92-.94-3.4s.32-2.6.95-3.38c.62-.78 1.53-1.17 2.7-1.17.88 0 1.6.25 2.17.7.58.48.94 1.1 1.08 1.93l-1.45.1c-.08-.47-.26-.86-.56-1.15-.3-.3-.7-.42-1.26-.42-.75 0-1.3.25-1.64.76-.33.52-.5 1.38-.5 2.6zM1508.34 632.05v-5.57c0-.84-.12-1.43-.34-1.75-.23-.33-.63-.5-1.22-.5-.6 0-1.07.25-1.42.73-.36.47-.53 1.14-.53 2v5.1h-1.42v-6.9c0-1.04 0-1.65-.03-1.9h1.33l.02.24.02.4.03.88h.02c.3-.63.65-1.06 1.04-1.3.4-.24.87-.37 1.44-.37.64 0 1.16.15 1.53.4.38.28.64.7.8 1.28.3-.6.67-1 1.08-1.27.42-.25.92-.4 1.52-.4.86 0 1.48.25 1.87.74.4.48.6 1.27.6 2.37v5.85h-1.4v-5.57c0-.84-.12-1.43-.35-1.75-.22-.33-.63-.5-1.22-.5-.62 0-1.1.25-1.44.73-.34.47-.52 1.14-.52 2v5.1z" stroke="#000" stroke-opacity="0" fill="#fff"/><path d="M1495.32 567.8v4.66h33.27v-4.67zM1480.96 567.8v4.66h8.34v-4.67zM1507.4 580.25v4.67h21.2v-4.67z" stroke="#000" stroke-opacity="0" stroke-width="3.77" fill="#fff"/><path d="M1493.05 580.25v4.67h8.34v-4.67zM1507.4 592.7v4.68h21.2v-4.67zM1493.05 592.7v4.68h8.34v-4.67zM1495.32 605.16v4.67h33.27v-4.67zM1480.96 605.16v4.67h8.34v-4.67z" stroke="#000" stroke-opacity="0" stroke-width="2.99" fill="#fff"/><path d="M1504.56 406.4c-.73.07-1.3.2-1.9.5l-25.1 12.38c-1.38.65-2.32 1.8-2.6 3.33l-6.24 27.88c-.3 1.3-.07 2.6.65 3.76.08.15.15.22.3.36l17.37 22.3c.94 1.23 2.24 1.88 3.76 1.88h27.95c1.52 0 2.82-.65 3.76-1.88l17.38-22.3c.94-1.23 1.3-2.67.94-4.2l-6.22-27.8c-.3-1.5-1.23-2.67-2.6-3.32l-25.13-12.38c-.8-.36-1.52-.58-2.3-.5z" stroke="#000" stroke-opacity="0" stroke-width="3.83" fill="#326ce5"/><path d="M1504.55 404.38c-.77.07-1.38.23-2 .53l-26.5 13.08c-1.46.7-2.45 1.9-2.76 3.5l-6.58 29.44c-.3 1.37-.08 2.75.7 3.97.06.14.14.22.3.37l18.33 23.54c1 1.3 2.37 2 3.98 2h29.5c1.6 0 2.97-.7 3.97-2l18.34-23.53c1-1.3 1.37-2.83 1-4.35l-6.58-29.43c-.3-1.6-1.3-2.83-2.75-3.52L1507 404.9c-.85-.37-1.6-.6-2.45-.52zm0 2.06c.84-.08 1.52.08 2.3.46l25.2 12.38c1.3.7 2.22 1.83 2.6 3.36l6.2 27.82c.3 1.53 0 2.9-.92 4.12l-17.43 22.32c-.9 1.22-2.2 1.9-3.74 1.9h-27.97c-1.54 0-2.84-.68-3.75-1.9l-17.43-22.32c-.07-.07-.15-.23-.23-.38-.77-1.14-1-2.37-.7-3.74l6.2-27.82c.38-1.53 1.22-2.67 2.6-3.36l25.2-12.38c.62-.3 1.16-.46 1.85-.54z" stroke="#000" stroke-opacity="0" stroke-width="3.83" fill="#fff"/><path d="M1501.05 472.66h-1.24l-2.28-6.5h1.12l1.4 4.23.4 1.42.2-.7.22-.72 1.44-4.25h1.1zM1509.6 469.4c0 1.14-.24 2-.73 2.54-.5.56-1.2.84-2.12.84-.92 0-1.62-.3-2.1-.86-.46-.6-.7-1.43-.7-2.52 0-2.25.95-3.37 2.84-3.37.95 0 1.66.28 2.12.82.45.55.68 1.4.68 2.55zm-1.1 0c0-.9-.14-1.55-.4-1.96-.25-.4-.7-.6-1.3-.6-.6 0-1.06.2-1.33.6-.27.43-.42 1.07-.42 1.96 0 .86.14 1.5.4 1.94.28.43.7.64 1.3.64.62 0 1.07-.2 1.34-.62.26-.42.4-1.08.4-1.96zM1510.9 472.66v-8.93h1.06v8.93z" stroke="#000" stroke-opacity="0" fill="#fff"/><path d="M1485.17 435.03c0 2.7 8.78 4.9 19.6 4.9 10.83 0 19.6-2.2 19.6-4.9v13.28c0 2.72-8.77 4.92-19.6 4.92-10.82 0-19.6-2.2-19.6-4.9z" stroke="#000" stroke-opacity="0" stroke-width="3.77" fill="#fff"/><path d="M1485.17 435.03c0-2.72 8.78-4.92 19.6-4.92 10.83 0 19.6 2.2 19.6 4.93 0 2.7-8.77 4.9-19.6 4.9-10.82 0-19.6-2.2-19.6-4.9z" stroke="#000" stroke-opacity="0" stroke-width="3.77" fill="#fff"/><path d="M1504.77 429.54c-5.45 0-10.37.55-14 1.45-1.8.45-3.27 1-4.35 1.62-1.05.63-1.82 1.4-1.82 2.4v13.3c0 1 .77 1.77 1.82 2.4 1.08.63 2.54 1.16 4.35 1.62 3.63.9 8.55 1.46 14 1.46 5.45 0 10.37-.56 14-1.46 1.8-.46 3.27-1 4.36-1.62 1.04-.63 1.8-1.4 1.8-2.4v-13.3c0-1-.76-1.77-1.8-2.4-1.1-.63-2.55-1.17-4.36-1.63-3.63-.9-8.55-1.46-14-1.46zm0 1.16c5.37 0 10.25.53 13.72 1.4 1.76.44 3.13.98 4.06 1.5.93.55 1.25 1.08 1.25 1.42 0 .36-.3.87-1.24 1.4-.93.56-2.3 1.07-4.07 1.5-3.48.88-8.36 1.44-13.73 1.44-5.37 0-10.25-.56-13.72-1.43-1.77-.44-3.14-.95-4.07-1.5-.93-.54-1.25-1.05-1.25-1.4 0-.35.32-.88 1.25-1.42.93-.52 2.3-1.06 4.07-1.5 3.47-.87 8.35-1.4 13.72-1.4zm-19.04 5.82c.16.34.32.63.7.93 1 .75 2.53 1.16 4.34 1.62 3.63.9 8.55 1.43 14 1.43 5.45 0 10.37-.53 14-1.43 1.8-.46 3.27-1 4.36-1.62.4-.3.56-.66.68-.93v11.8c0 .33-.3.87-1.24 1.4-.93.54-2.3 1.07-4.07 1.5-3.48.88-8.36 1.4-13.73 1.4-5.37 0-10.25-.52-13.72-1.4-1.77-.43-3.14-.96-4.07-1.5-.93-.53-1.25-1.07-1.25-1.4z" stroke="#000" stroke-opacity="0" stroke-width="3.77" fill="#326ce5"/><path d="M1505.77 481.8c0 .55-.44 1-1 1-.55 0-1-.45-1-1 0-.56.45-1 1-1 .56 0 1 .44 1 1zm0 3.97c0 .55-.44 1-1 1-.55 0-1-.45-1-1s.45-1 1-1c.56 0 1 .45 1 1zm0 3.97c0 .55-.44 1-1 1-.55 0-1-.45-1-1s.45-1 1-1c.56 0 1 .45 1 1zm0 3.97c0 .57-.44 1-1 1-.55 0-1-.43-1-1 0-.54.45-1 1-1 .56 0 1 .46 1 1zm0 4c0 .54-.44 1-1 1-.55 0-1-.46-1-1 0-.57.45-1 1-1 .56 0 1 .43 1 1zm0 3.96c0 .55-.44 1-1 1-.55 0-1-.45-1-1s.45-1 1-1c.56 0 1 .45 1 1zm0 3.97c0 .55-.44 1-1 1-.55 0-1-.45-1-1s.45-1 1-1c.56 0 1 .45 1 1zm0 3.97c0 .56-.44 1-1 1-.55 0-1-.44-1-1 0-.55.45-1 1-1 .56 0 1 .45 1 1zm0 3.98c0 .55-.44 1-1 1-.55 0-1-.45-1-1 0-.56.45-1 1-1 .56 0 1 .44 1 1zm0 3.97c0 .55-.44 1-1 1-.55 0-1-.45-1-1s.45-1 1-1c.56 0 1 .45 1 1z"/><path d="M1505.77 481.82h-2v-1.02h2z"/><path d="M1504.77 536.8l-4.63-14.28h9.27z" stroke="#000" stroke-width="2"/><path d="M1400 620h209.55v117.47H1400z" stroke="#000" stroke-opacity="0" stroke-width="2" fill="#fff" fill-opacity="0"/><use xlink:href="#r" transform="matrix(1,0,0,1,1405,625) translate(34.04938271604938 47.97222222222222)"/><use xlink:href="#s" transform="matrix(1,0,0,1,1405,625) translate(130.49382716049382 47.97222222222222)"/><use xlink:href="#t" transform="matrix(1,0,0,1,1405,625) translate(41.80246913580246 69.30555555555556)"/><use xlink:href="#u" transform="matrix(1,0,0,1,1405,625) translate(115.77777777777777 69.30555555555556)"/><path d="M1593.82 901.3c0 .55-.45 1-1 1s-1-.45-1-1c0-.56.45-1 1-1s1 .44 1 1zm0-4c0 .56-.45 1-1 1s-1-.44-1-1c0-.55.45-1 1-1s1 .45 1 1zm0-3.98c0 .55-.45 1-1 1s-1-.45-1-1 .45-1 1-1 1 .45 1 1zm0-4c0 .56-.45 1-1 1s-1-.44-1-1c0-.54.45-1 1-1s1 .46 1 1zm0-3.97c0 .55-.45 1-1 1s-1-.45-1-1c0-.56.45-1 1-1s1 .44 1 1zm0-4c0 .56-.45 1-1 1s-1-.44-1-1c0-.54.45-1 1-1s1 .46 1 1zm0-3.98c0 .55-.45 1-1 1s-1-.45-1-1 .45-1 1-1 1 .45 1 1zm0-4c0 .57-.45 1-1 1s-1-.43-1-1c0-.54.45-1 1-1s1 .46 1 1zm0-3.97c0 .55-.45 1-1 1s-1-.45-1-1 .45-1 1-1 1 .45 1 1zm0-4c0 .56-.45 1-1 1s-1-.44-1-1c0-.54.45-1 1-1s1 .46 1 1zm0-3.98c0 .56-.45 1-1 1s-1-.44-1-1c0-.55.45-1 1-1s1 .45 1 1zm0-3.98c0 .55-.45 1-1 1s-1-.45-1-1c0-.56.45-1 1-1s1 .44 1 1zm0-4c0 .56-.45 1-1 1s-1-.44-1-1c0-.54.45-1 1-1s1 .46 1 1zm0-3.98c0 .56-.45 1-1 1s-1-.44-1-1c0-.55.45-1 1-1s1 .45 1 1zm0-3.98c0 .55-.45 1-1 1s-1-.45-1-1c0-.56.45-1 1-1s1 .44 1 1zm0-4c0 .56-.45 1-1 1s-1-.44-1-1c0-.54.45-1 1-1s1 .46 1 1zm0-3.98c0 .55-.45 1-1 1s-1-.45-1-1 .45-1 1-1 1 .45 1 1zm0-3.98c0 .55-.45 1-1 1s-1-.45-1-1c0-.56.45-1 1-1s1 .44 1 1zm0-4c0 .56-.45 1-1 1s-1-.44-1-1c0-.54.45-1 1-1s1 .46 1 1zm0-3.98c0 .55-.45 1-1 1s-1-.45-1-1 .45-1 1-1 1 .45 1 1zm0-4c0 .57-.45 1-1 1s-1-.43-1-1c0-.54.45-1 1-1s1 .46 1 1zm0-3.97c0 .55-.45 1-1 1s-1-.45-1-1 .45-1 1-1 1 .45 1 1zm0-4c0 .56-.45 1-1 1s-1-.44-1-1c0-.54.45-1 1-1s1 .46 1 1zm0-3.98c0 .55-.45 1-1 1s-1-.45-1-1c0-.56.45-1 1-1s1 .44 1 1zm0-4c0 .56-.45 1-1 1s-1-.44-1-1c0-.55.45-1 1-1s1 .45 1 1zm0-3.98c0 .55-.45 1-1 1s-1-.45-1-1 .45-1 1-1 1 .45 1 1zm0-4c0 .57-.45 1-1 1s-1-.43-1-1c0-.54.45-1 1-1s1 .46 1 1zm0-3.97c0 .55-.45 1-1 1s-1-.45-1-1c0-.56.45-1 1-1s1 .44 1 1zm0-4c0 .56-.45 1-1 1s-1-.44-1-1c0-.54.45-1 1-1s1 .46 1 1zm0-3.98c0 .55-.45 1-1 1s-1-.45-1-1 .45-1 1-1 1 .45 1 1zm0-4c0 .57-.45 1-1 1s-1-.43-1-1c0-.54.45-1 1-1s1 .46 1 1zm0-3.97c0 .55-.45 1-1 1s-1-.45-1-1 .45-1 1-1 1 .45 1 1zm0-4c0 .56-.45 1-1 1s-1-.44-1-1c0-.54.45-1 1-1s1 .46 1 1zm0-3.98c0 .56-.45 1-1 1s-1-.44-1-1c0-.55.45-1 1-1s1 .45 1 1zm0-3.98c0 .55-.45 1-1 1s-1-.45-1-1c0-.56.45-1 1-1s1 .44 1 1zm0-4c0 .56-.45 1-1 1s-1-.44-1-1c0-.54.45-1 1-1s1 .46 1 1zm0-3.98c0 .56-.45 1-1 1s-1-.44-1-1c0-.55.45-1 1-1s1 .45 1 1zm0-3.98c0 .55-.45 1-1 1s-1-.45-1-1c0-.56.45-1 1-1s1 .44 1 1zm0-4c0 .56-.45 1-1 1s-1-.44-1-1c0-.54.45-1 1-1s1 .46 1 1zm0-3.98c0 .55-.45 1-1 1s-1-.45-1-1 .45-1 1-1 1 .45 1 1zm0-3.98c0 .55-.45 1-1 1s-1-.45-1-1c0-.56.45-1 1-1s1 .44 1 1zm0-4c0 .56-.45 1-1 1s-1-.44-1-1c0-.54.45-1 1-1s1 .46 1 1zm0-3.98c0 .55-.45 1-1 1s-1-.45-1-1 .45-1 1-1 1 .45 1 1zm0-4c0 .57-.45 1-1 1s-1-.43-1-1c0-.54.45-1 1-1s1 .46 1 1zm0-3.97c0 .55-.45 1-1 1s-1-.45-1-1 .45-1 1-1 1 .45 1 1zm0-4c0 .56-.45 1-1 1s-1-.44-1-1c0-.54.45-1 1-1s1 .46 1 1zm0-3.98c0 .55-.45 1-1 1s-1-.45-1-1c0-.56.45-1 1-1s1 .44 1 1zm0-4c0 .56-.45 1-1 1s-1-.44-1-1c0-.55.45-1 1-1s1 .45 1 1zm0-3.98c0 .55-.45 1-1 1s-1-.45-1-1 .45-1 1-1 1 .45 1 1zm0-4c0 .57-.45 1-1 1s-1-.43-1-1c0-.54.45-1 1-1s1 .46 1 1zm0-3.97c0 .55-.45 1-1 1s-1-.45-1-1c0-.56.45-1 1-1s1 .44 1 1zm0-4c0 .56-.45 1-1 1s-1-.44-1-1c0-.54.45-1 1-1s1 .46 1 1zm0-3.98c0 .55-.45 1-1 1s-1-.45-1-1 .45-1 1-1 1 .45 1 1zm0-3.98c0 .54-.45 1-1 1s-1-.46-1-1c0-.57.45-1 1-1s1 .43 1 1zm0-4c0 .55-.45 1-1 1s-1-.45-1-1 .45-1 1-1 1 .45 1 1zm0-4c0 .56-.45 1-1 1s-1-.44-1-1c0-.54.45-1 1-1s1 .46 1 1zm0-3.98c0 .56-.45 1-1 1s-1-.44-1-1c0-.55.45-1 1-1s1 .45 1 1zm0-3.98c0 .55-.45 1-1 1s-1-.45-1-1 .45-1 1-1 1 .45 1 1zm0-4c0 .56-.45 1-1 1s-1-.44-1-1c0-.54.45-1 1-1s1 .46 1 1zm0-3.98c0 .56-.45 1-1 1s-1-.44-1-1c0-.55.45-1 1-1s1 .45 1 1zm0-3.98c0 .55-.45 1-1 1s-1-.45-1-1c0-.56.45-1 1-1s1 .44 1 1zm0-4c0 .56-.45 1-1 1s-1-.44-1-1c0-.54.45-1 1-1s1 .46 1 1zm0-3.98c0 .56-.45 1-1 1s-1-.44-1-1c0-.55.45-1 1-1s1 .45 1 1zm0-3.98c0 .55-.45 1-1 1s-1-.45-1-1c0-.56.45-1 1-1s1 .44 1 1zm0-4c0 .56-.45 1-1 1s-1-.44-1-1c0-.54.45-1 1-1s1 .46 1 1zm0-3.98c0 .55-.45 1-1 1s-1-.45-1-1 .45-1 1-1 1 .45 1 1zm0-3.98c0 .55-.45 1-1 1s-1-.45-1-1c0-.56.45-1 1-1s1 .44 1 1zm0-4c0 .56-.45 1-1 1s-1-.44-1-1c0-.54.45-1 1-1s1 .46 1 1zm0-3.98c0 .55-.45 1-1 1s-1-.45-1-1 .45-1 1-1 1 .45 1 1zm0-4c0 .57-.45 1-1 1s-1-.43-1-1c0-.54.45-1 1-1s1 .46 1 1zm0-3.97c0 .56-.45 1-1 1s-1-.44-1-1c0-.54.45-1 1-1s1 .46 1 1zm0-3.98c0 .55-.45 1-1 1s-1-.45-1-1 .45-1 1-1 1 .45 1 1zm0-4c0 .57-.45 1-1 1s-1-.43-1-1c0-.54.45-1 1-1s1 .46 1 1zm0-3.97c0 .55-.45 1-1 1s-1-.45-1-1c0-.56.45-1 1-1s1 .44 1 1zm0-4c0 .56-.45 1-1 1s-1-.44-1-1c0-.54.45-1 1-1s1 .46 1 1zm0-3.98c0 .55-.45 1-1 1s-1-.45-1-1 .45-1 1-1 1 .45 1 1zm0-3.98c0 .54-.45 1-1 1s-1-.46-1-1c0-.57.45-1 1-1s1 .43 1 1zm0-4c0 .55-.45 1-1 1s-1-.45-1-1 .45-1 1-1 1 .45 1 1zm0-4c0 .56-.45 1-1 1s-1-.44-1-1c0-.54.45-1 1-1s1 .46 1 1zm0-3.98c0 .56-.45 1-1 1s-1-.44-1-1c0-.55.45-1 1-1s1 .45 1 1zm0-3.98c0 .55-.45 1-1 1s-1-.45-1-1 .45-1 1-1 1 .45 1 1zm0-4c0 .56-.45 1-1 1s-1-.44-1-1c0-.54.45-1 1-1s1 .46 1 1zm0-3.98c0 .56-.45 1-1 1s-1-.44-1-1c0-.55.45-1 1-1s1 .45 1 1zm0-3.98c0 .55-.45 1-1 1s-1-.45-1-1c0-.56.45-1 1-1s1 .44 1 1zm0-4c0 .56-.45 1-1 1s-1-.44-1-1c0-.54.45-1 1-1s1 .46 1 1zm0-3.98c0 .56-.45 1-1 1s-1-.44-1-1c0-.55.45-1 1-1s1 .45 1 1zm0-3.98c0 .55-.45 1-1 1s-1-.45-1-1c0-.56.45-1 1-1s1 .44 1 1zm0-4c0 .56-.45 1-1 1s-1-.44-1-1c0-.54.45-1 1-1s1 .46 1 1zm0-3.98c0 .55-.45 1-1 1s-1-.45-1-1 .45-1 1-1 1 .45 1 1zm0-3.98c0 .55-.45 1-1 1s-1-.45-1-1c0-.56.45-1 1-1s1 .44 1 1zm0-4c0 .56-.45 1-1 1s-1-.44-1-1c0-.54.45-1 1-1s1 .46 1 1zm0-3.98c0 .55-.45 1-1 1s-1-.45-1-1 .45-1 1-1 1 .45 1 1zm0-4c0 .57-.45 1-1 1s-1-.43-1-1c0-.54.45-1 1-1s1 .46 1 1zm0-3.97c0 .56-.45 1-1 1s-1-.44-1-1c0-.54.45-1 1-1s1 .46 1 1zm0-3.98c0 .55-.45 1-1 1s-1-.45-1-1 .45-1 1-1 1 .45 1 1zm0-4c0 .57-.45 1-1 1s-1-.43-1-1c0-.54.45-1 1-1s1 .46 1 1zm0-3.97c0 .55-.45 1-1 1s-1-.45-1-1c0-.56.45-1 1-1s1 .44 1 1zm0-4c0 .56-.45 1-1 1s-1-.44-1-1c0-.54.45-1 1-1s1 .46 1 1zm0-3.98c0 .56-.45 1-1 1s-1-.44-1-1c0-.55.45-1 1-1s1 .45 1 1zm0-3.98c0 .54-.45 1-1 1s-1-.46-1-1c0-.57.45-1 1-1s1 .43 1 1zm0-4c0 .55-.45 1-1 1s-1-.45-1-1 .45-1 1-1 1 .45 1 1zm0-4c0 .56-.45 1-1 1s-1-.44-1-1c0-.54.45-1 1-1s1 .46 1 1zm0-3.97c0 .55-.45 1-1 1s-1-.45-1-1c0-.56.45-1 1-1s1 .44 1 1zm0-4c0 .56-.45 1-1 1s-1-.44-1-1c0-.54.45-1 1-1s1 .46 1 1zm0-3.98c0 .55-.45 1-1 1s-1-.45-1-1 .45-1 1-1 1 .45 1 1zm0-4c0 .57-.45 1-1 1s-1-.43-1-1c0-.54.45-1 1-1s1 .46 1 1zm0-3.97c0 .55-.45 1-1 1s-1-.45-1-1 .45-1 1-1 1 .45 1 1zm0-4c0 .56-.45 1-1 1s-1-.44-1-1c0-.54.45-1 1-1s1 .46 1 1zm0-3.98c0 .56-.45 1-1 1s-1-.44-1-1c0-.55.45-1 1-1s1 .45 1 1zm0-3.98c0 .55-.45 1-1 1s-1-.45-1-1c0-.56.45-1 1-1s1 .44 1 1zm0-4c0 .56-.45 1-1 1s-1-.44-1-1c0-.54.45-1 1-1s1 .46 1 1zm0-3.98c0 .56-.45 1-1 1s-1-.44-1-1c0-.55.45-1 1-1s1 .45 1 1zm0-3.98c0 .55-.45 1-1 1s-1-.45-1-1c0-.56.45-1 1-1s1 .44 1 1zm0-4c0 .56-.45 1-1 1s-1-.44-1-1c0-.54.45-1 1-1s1 .46 1 1zm0-3.98c0 .55-.45 1-1 1s-1-.45-1-1 .45-1 1-1 1 .45 1 1z"/><path d="M1592.82 916.56l-4.63-14.27h9.26z" stroke="#000" stroke-width="2"/><path d="M1593.82 442.82h-2v-1.02h2z"/><path d="M480 669.94h160V840H480z" stroke="#000" stroke-width="2" fill="#fff"/><path d="M559.66 693.1c-1.14.1-2.05.34-2.96.8l-39.44 19.43c-2.16 1.03-3.64 2.85-4.1 5.23l-9.77 43.77c-.47 2.04-.13 4.1 1 5.9.12.23.24.35.47.57l27.28 35c1.48 1.95 3.52 2.97 5.9 2.97h43.9c2.37 0 4.42-1.02 5.9-2.96l27.28-35c1.48-1.93 2.05-4.2 1.48-6.6l-9.77-43.64c-.45-2.38-1.93-4.2-4.1-5.23L563.3 693.9c-1.26-.57-2.4-.9-3.64-.8z" stroke="#000" stroke-opacity="0" stroke-width="3.83" fill="#326ce5"/><path d="M559.64 689.94c-1.2.12-2.16.36-3.12.84l-41.64 20.52c-2.28 1.08-3.84 3-4.32 5.52l-10.32 46.2c-.48 2.16-.12 4.32 1.08 6.24.12.24.24.36.48.6l28.8 36.96c1.56 2.04 3.72 3.12 6.24 3.12h46.32c2.52 0 4.68-1.08 6.24-3.12l28.8-36.96c1.56-2.04 2.16-4.44 1.56-6.96l-10.32-46.08c-.48-2.52-2.04-4.44-4.32-5.52l-41.64-20.52c-1.32-.6-2.52-.96-3.84-.84zm0 3.24c1.32-.12 2.4.12 3.6.72l39.6 19.44c2.04 1.08 3.48 2.88 4.08 5.28l9.72 43.68c.48 2.4 0 4.56-1.44 6.48l-27.36 35.04c-1.44 1.92-3.48 3-5.88 3h-43.92c-2.4 0-4.44-1.08-5.88-3l-27.36-35.04c-.12-.12-.24-.36-.36-.6-1.2-1.8-1.56-3.72-1.08-5.88l9.72-43.68c.6-2.4 1.92-4.2 4.08-5.28l39.6-19.44c.96-.48 1.8-.72 2.88-.72z" stroke="#000" stroke-opacity="0" stroke-width="3.83" fill="#fff"/><path d="M554.43 794.32c0 .96-.35 1.7-1.07 2.23-.7.52-1.68.78-2.96.78-1.23 0-2.18-.2-2.85-.62-.67-.4-1.1-1.07-1.3-1.96l1.45-.3c.14.56.43.96.87 1.22s1.05.38 1.83.38c.84 0 1.45-.14 1.84-.4.4-.26.58-.67.58-1.2 0-.4-.13-.72-.4-.98-.27-.24-.7-.45-1.3-.62l-1.18-.32c-.95-.25-1.63-.5-2.03-.74-.4-.24-.7-.54-.92-.9-.23-.33-.34-.76-.34-1.26 0-.93.32-1.64.96-2.12.65-.5 1.6-.74 2.83-.74 1.1 0 1.95.2 2.6.6.65.4 1.06 1.03 1.23 1.9l-1.5.2c-.08-.46-.33-.8-.73-1.05-.4-.24-.93-.35-1.6-.35-.75 0-1.3.1-1.66.35-.35.23-.53.58-.53 1.05 0 .3.07.53.22.72.15.18.36.35.65.48.3.14.9.32 1.83.55.87.22 1.5.43 1.9.63.37.2.67.4.9.64.22.23.4.5.52.8.12.3.18.66.18 1.05zM560.72 797.13h-1.95l-3.6-10.22h1.76l2.18 6.66c.08.25.3 1 .64 2.24l.32-1.1.36-1.12 2.25-6.67h1.75zM567 792c0 1.35.22 2.36.63 3 .4.67 1.05 1 1.88 1 .6 0 1.1-.17 1.47-.5.4-.33.65-.83.74-1.5l1.68.1c-.13 1-.54 1.77-1.22 2.35-.68.6-1.55.88-2.6.88-1.4 0-2.45-.44-3.18-1.34-.73-.92-1.1-2.24-1.1-3.98 0-1.7.37-3.03 1.1-3.93.73-.9 1.8-1.37 3.15-1.37 1.02 0 1.86.28 2.53.82.67.54 1.1 1.28 1.26 2.24l-1.7.1c-.08-.55-.3-1-.65-1.33-.34-.34-.84-.5-1.48-.5-.88 0-1.5.3-1.9.9-.4.6-.6 1.6-.6 3.02z" stroke="#000" stroke-opacity="0" fill="#fff"/><path d="M523.93 759.07h19.35v14h-19.35zM550.32 759.07h19.35v14h-19.35zM576.73 759.07h19.34v14h-19.34zM544.67 717.6h30.65v14h-30.65z" stroke="#000" stroke-opacity="0" stroke-width="3.77" fill="#fff"/><path d="M558.23 731.58v11.93h-24.6c-1 0-1.77.83-1.77 1.82v13.74h3.5v-11.93H560c.98 0 1.75-.8 1.75-1.8v-13.75z" stroke="#000" stroke-opacity="0" stroke-width="3.77" fill="#fff"/><path d="M558.25 731.58v13.74c0 1.02.77 1.8 1.76 1.8h24.6v11.94h3.54v-13.74c0-1-.78-1.8-1.76-1.8h-24.64v-11.94z" stroke="#000" stroke-opacity="0" stroke-width="3.77" fill="#fff"/><path d="M558.18 731.58v13.74c0 .22.04.44.12.63v13.1h3.52v-13.73c0-.22-.04-.4-.12-.63v-13.12z" stroke="#000" stroke-opacity="0" stroke-width="3.77" fill="#fff"/><path d="M889.5 753.02H642" stroke="#248814" stroke-width="2" fill="none"/><path d="M904.77 753.02l-14.27 4.63v-9.27z" stroke="#248814" stroke-width="2" fill="#248814"/><path d="M642.03 754.02H641v-2h1.03z" fill="#248814"/><path d="M1040.4 645.4v-9.94m0-9.93v-19.88m0-9.93v-19.87m0-9.94v-19.86m0-9.94v-19.87m0-9.94V486.4m0-9.93v-19.9m0-9.92V426.8m0-9.93V397m0-9.94v-6.26h13.6m9.93 0h19.87m9.94 0h19.87m9.95 0h19.87m9.93 0h19.88m9.93 0h19.87m9.94 0h19.87m9.94 0h19.87m9.94 0h19.86m9.94 0h19.87m9.93 0h19.88m9.93 0h19.88m9.94 0h19.87m9.93 0h9.93" stroke="#000" stroke-width="2" fill="none"/><path d="M1041.4 646.4h-2v-1.03h2z"/><path d="M1446.83 380.8l-14.27 4.63v-9.27z" stroke="#000" stroke-width="2"/><use xlink:href="#v" transform="matrix(1,0,0,1,1099.7666666666696,333.59509752825744) translate(0 14.4)"/><use xlink:href="#w" transform="matrix(1,0,0,1,1099.7666666666696,333.59509752825744) translate(53 14.4)"/><use xlink:href="#x" transform="matrix(1,0,0,1,1099.7666666666696,333.59509752825744) translate(117.95 14.4)"/><use xlink:href="#y" transform="matrix(1,0,0,1,1099.7666666666696,333.59509752825744) translate(151.9 14.4)"/><use xlink:href="#z" transform="matrix(1,0,0,1,1099.7666666666696,333.59509752825744) translate(175.9 14.4)"/><use xlink:href="#A" transform="matrix(1,0,0,1,1099.7666666666696,333.59509752825744) translate(0 36)"/><use xlink:href="#B" transform="matrix(1,0,0,1,1099.7666666666696,333.59509752825744) translate(30.95 36)"/><use xlink:href="#C" transform="matrix(1,0,0,1,1099.7666666666696,333.59509752825744) translate(60.95 36)"/><use xlink:href="#D" transform="matrix(1,0,0,1,1099.7666666666696,333.59509752825744) translate(96.9 36)"/><use xlink:href="#E" transform="matrix(1,0,0,1,1099.7666666666696,333.59509752825744) translate(133.7 36)"/><path d="M1079.5 627.9v-10.14m0-10.13v-20.26m0-10.14v-20.26m0-10.14v-20.26m0-10.14v-20.26m0-10.13v-20.27m0-10.13v-20.27m0-10.13v-5.34h14.9m10.15 0h20.26m10.14 0h20.27m10.14 0h20.27m10.14 0H1216m10.14 0h20.27m10.14 0h20.27m10.14 0h20.27m10.14 0h20.26m10.14 0H1368m10.14 0h20.26m10.13 0h20.27m10.13 0h10.14" stroke="#000" stroke-width="2" fill="none"/><path d="M1079.5 643.16l-4.65-14.26h9.27z" stroke="#000" stroke-width="2"/><path d="M1450.07 420.9h-1.03v-2h1.03z"/><use xlink:href="#F" transform="matrix(1,0,0,1,1123.7666666666698,423.8969914541981) translate(0 14.4)"/><use xlink:href="#w" transform="matrix(1,0,0,1,1123.7666666666698,423.8969914541981) translate(112.8 14.4)"/><use xlink:href="#G" transform="matrix(1,0,0,1,1123.7666666666698,423.8969914541981) translate(177.75 14.4)"/><use xlink:href="#H" transform="matrix(1,0,0,1,1123.7666666666698,423.8969914541981) translate(0 36)"/><use xlink:href="#B" transform="matrix(1,0,0,1,1123.7666666666698,423.8969914541981) translate(25 36)"/><use xlink:href="#I" transform="matrix(1,0,0,1,1123.7666666666698,423.8969914541981) translate(55 36)"/><use xlink:href="#B" transform="matrix(1,0,0,1,1123.7666666666698,423.8969914541981) translate(98.9 36)"/><use xlink:href="#w" transform="matrix(1,0,0,1,1123.7666666666698,423.8969914541981) translate(128.9 36)"/><use xlink:href="#J" transform="matrix(1,0,0,1,1123.7666666666698,423.8969914541981) translate(193.85000000000002 36)"/><path d="M1111 752.63h50.5" stroke="#248814" stroke-width="2" fill="none"/><path d="M1111.03 753.63H1110v-2h1.03z" fill="#248814"/><path d="M1176.76 752.63l-14.26 4.64V748z" stroke="#248814" stroke-width="2" fill="#248814"/><path d="M1483.48 920.8h200v120h-200z" stroke="#000" stroke-width="2" fill="#ffdba9"/><path d="M1459.95 963.67h240v60h-240z" stroke="#000" stroke-opacity="0" stroke-width="2" fill="#fff" fill-opacity="0"/><g><use xlink:href="#K" transform="matrix(1,0,0,1,1464.9520599786297,968.6683373580688) translate(57.125 30.025)"/><use xlink:href="#L" transform="matrix(1,0,0,1,1464.9520599786297,968.6683373580688) translate(124.875 30.025)"/></g><path d="M1487.84 882.28c-.82.1-1.47.25-2.13.58l-28.43 14c-1.55.75-2.62 2.06-2.95 3.78l-7.05 31.56c-.32 1.47-.08 2.95.74 4.26.1.16.17.24.34.4l19.67 25.25c1.08 1.4 2.55 2.14 4.27 2.14h31.64c1.73 0 3.2-.74 4.27-2.13l19.67-25.23c1.07-1.4 1.48-3.04 1.07-4.76l-7.04-31.46c-.33-1.72-1.4-3.03-2.95-3.77l-28.43-14c-.9-.42-1.72-.67-2.63-.6z" stroke="#000" stroke-opacity="0" stroke-width="3.83" fill="#326ce5"/><path d="M1487.83 880c-.86.1-1.56.26-2.25.6l-30.02 14.8c-1.64.78-2.77 2.16-3.12 3.98l-7.44 33.3c-.34 1.57-.08 3.13.78 4.5.1.18.18.27.35.44l20.76 26.65c1.12 1.47 2.68 2.25 4.5 2.25h33.4c1.8 0 3.36-.78 4.5-2.25l20.75-26.65c1.13-1.47 1.56-3.2 1.13-4.93l-7.44-33.32c-.35-1.82-1.47-3.2-3.12-3.98l-30.02-14.8c-.95-.43-1.82-.7-2.77-.6zm0 2.34c.95-.1 1.73.08 2.6.52l28.55 14c1.47.8 2.5 2.1 2.94 3.82l7 31.5c.36 1.72 0 3.28-1.03 4.66l-19.74 25.27c-1.03 1.4-2.5 2.17-4.24 2.17h-31.66c-1.73 0-3.2-.78-4.24-2.16l-19.73-25.26c-.1-.08-.18-.26-.27-.43-.86-1.3-1.12-2.67-.78-4.23l7-31.5c.44-1.72 1.4-3.02 2.95-3.8l28.55-14c.7-.36 1.3-.53 2.08-.62z" stroke="#000" stroke-opacity="0" stroke-width="3.83" fill="#fff"/><path d="M1473.4 956.13c-.23.47-.52.8-.9 1-.36.2-.8.32-1.34.32-.9 0-1.57-.32-2-.95-.42-.62-.63-1.57-.63-2.84 0-2.58.88-3.86 2.63-3.86.54 0 1 .1 1.36.3.36.22.65.54.87.98v-3.88h1.17v8.6c0 .76.02 1.27.05 1.5h-1.14c0-.06-.03-.23-.04-.5l-.03-.67zm-3.62-2.5c0 1.02.13 1.76.4 2.2.26.45.7.67 1.28.67.68 0 1.17-.24 1.47-.72.3-.48.46-1.23.46-2.25 0-.97-.17-1.7-.47-2.14-.3-.46-.8-.7-1.45-.7-.6 0-1.03.24-1.3.7-.27.45-.4 1.2-.4 2.22zM1477.32 953.9c0 .83.17 1.5.5 1.94.35.46.84.7 1.5.7.5 0 .92-.12 1.23-.33.32-.2.52-.47.63-.8l1.05.3c-.42 1.17-1.4 1.75-2.9 1.75-1.08 0-1.88-.32-2.43-.97-.56-.65-.83-1.62-.83-2.9 0-1.2.27-2.15.83-2.8.55-.65 1.34-.97 2.37-.97 2.1 0 3.15 1.3 3.15 3.92v.17zm3.87-.95c-.07-.78-.26-1.35-.58-1.7-.32-.36-.78-.54-1.37-.54-.58 0-1.04.2-1.38.6-.33.4-.5.95-.54 1.65zM1490 953.6c0 2.56-.9 3.85-2.64 3.85-1.1 0-1.84-.43-2.22-1.3h-.03c.03.05.03.44.03 1.17v2.88h-1.18v-8.76c0-.76-.02-1.26-.05-1.5h1.15l.02.2.03.5.02.48h.02c.22-.45.5-.78.84-1 .35-.2.8-.3 1.38-.3.88 0 1.54.3 1.97.9.44.6.66 1.56.66 2.87zm-1.26 0c0-1-.13-1.74-.4-2.18-.27-.45-.7-.67-1.28-.67-.48 0-.84.1-1.1.32-.28.2-.48.52-.62.95-.14.43-.2 1-.2 1.7 0 .96.14 1.67.44 2.13.3.46.8.68 1.46.68.6 0 1.02-.2 1.3-.66.26-.45.4-1.2.4-2.26zM1491.48 957.3v-10.1h1.2v10.1zM1500.54 953.62c0 1.3-.28 2.25-.83 2.88-.54.63-1.34.95-2.4.95-1.03 0-1.82-.33-2.36-.98-.53-.67-.8-1.6-.8-2.85 0-2.55 1.07-3.82 3.2-3.82 1.1 0 1.9.32 2.42.94.52.62.78 1.58.78 2.88zm-1.25 0c0-1.02-.16-1.76-.46-2.22-.3-.46-.78-.7-1.47-.7-.7 0-1.2.24-1.5.72-.32.46-.48 1.2-.48 2.2 0 .97.14 1.7.45 2.2.3.48.8.72 1.45.72.7 0 1.22-.23 1.52-.7.3-.48.47-1.22.47-2.22zM1502.37 960.2c-.32 0-.6-.02-.82-.07v-.92c.17.04.36.05.56.05.75 0 1.34-.56 1.77-1.68l.1-.3-2.83-7.33h1.27l1.52 4.07.08.24.3.9.26.83.47-1.34 1.57-4.7h1.25l-2.75 7.38c-.3.8-.57 1.37-.82 1.76-.26.38-.54.67-.86.86-.3.2-.65.28-1.05.28z" stroke="#000" stroke-opacity="0" fill="#fff"/><path d="M1485.98 942.07c-11.72.57-21.7-8.7-22.28-20.75-.64-12.1 8.3-22.42 20.02-23.13 11.72-.7 21.77 8.43 22.54 20.52l-8.44.57c-.47-7.3-6.52-12.84-13.6-12.4-7.06.4-12.47 6.64-12.1 13.93.35 7.3 6.4 12.88 13.47 12.58z" stroke="#000" stroke-opacity="0" stroke-width="3.77" fill="#fff"/><path d="M1490.35 918.73l6.7 16.9 15.48-16.9z" stroke="#000" stroke-opacity="0" stroke-width="3.77" fill="#fff"/><path d="M1538 1002.02c-.73.07-1.3.2-1.9.5l-25.1 12.38c-1.4.65-2.33 1.8-2.62 3.33l-6.22 27.87c-.3 1.3-.07 2.6.65 3.76.08.15.15.22.3.37l17.37 22.3c.94 1.22 2.25 1.87 3.77 1.87h27.94c1.52 0 2.82-.65 3.76-1.88l17.38-22.3c.94-1.22 1.3-2.67.94-4.2l-6.23-27.8c-.3-1.5-1.23-2.67-2.6-3.32l-25.12-12.38c-.8-.36-1.5-.58-2.3-.5z" stroke="#000" stroke-opacity="0" stroke-width="3.83" fill="#326ce5"/><path d="M1537.98 1000c-.76.08-1.38.23-2 .53l-26.5 13.07c-1.46.7-2.45 1.9-2.76 3.52l-6.57 29.42c-.3 1.37-.07 2.75.7 3.97.07.17.14.24.3.4l18.34 23.53c.98 1.3 2.36 2 3.96 2h29.5c1.6 0 2.98-.7 3.97-2l18.34-23.54c1-1.3 1.38-2.83 1-4.36l-6.58-29.42c-.3-1.6-1.3-2.83-2.76-3.52l-26.5-13.07c-.86-.38-1.62-.6-2.46-.53zm0 2.06c.84-.07 1.53.08 2.3.46l25.2 12.38c1.3.7 2.23 1.84 2.6 3.36l6.2 27.82c.3 1.53 0 2.9-.92 4.13l-17.42 22.32c-.92 1.22-2.22 1.9-3.75 1.9h-27.98c-1.52 0-2.82-.68-3.74-1.9l-17.42-22.3c-.08-.1-.16-.24-.23-.4-.77-1.14-1-2.36-.7-3.74l6.2-27.82c.38-1.52 1.22-2.67 2.6-3.36l25.22-12.38c.6-.3 1.14-.46 1.83-.53z" stroke="#000" stroke-opacity="0" stroke-width="3.83" fill="#fff"/><path d="M1534.5 1068.28h-1.26l-2.3-6.5h1.13l1.4 4.23.4 1.44.2-.7.22-.7 1.43-4.27h1.12zM1543.03 1065.02c0 1.14-.24 2-.73 2.55-.48.56-1.2.83-2.12.83-.92 0-1.6-.3-2.1-.86-.45-.6-.7-1.42-.7-2.52 0-2.25.95-3.37 2.84-3.37.97 0 1.67.28 2.13.83.46.54.68 1.4.68 2.54zm-1.1 0c0-.9-.13-1.55-.4-1.96-.25-.4-.68-.6-1.3-.6-.6 0-1.05.2-1.33.62-.27.4-.4 1.06-.4 1.94 0 .86.12 1.5.4 1.94.27.43.7.64 1.27.64.63 0 1.1-.2 1.35-.62.27-.42.4-1.07.4-1.96zM1544.35 1068.28v-8.93h1.05v8.93z" stroke="#000" stroke-opacity="0" fill="#fff"/><path d="M1518.6 1030.65c0 2.7 8.8 4.9 19.6 4.9 10.83 0 19.62-2.2 19.62-4.9v13.28c0 2.7-8.8 4.9-19.6 4.9-10.83 0-19.62-2.2-19.62-4.9z" stroke="#000" stroke-opacity="0" stroke-width="3.77" fill="#fff"/><path d="M1518.6 1030.65c0-2.7 8.8-4.9 19.6-4.9 10.83 0 19.62 2.2 19.62 4.9s-8.8 4.9-19.6 4.9c-10.83 0-19.62-2.2-19.62-4.9z" stroke="#000" stroke-opacity="0" stroke-width="3.77" fill="#fff"/><path d="M1538.2 1025.16c-5.44 0-10.36.56-14 1.45-1.8.48-3.26 1-4.35 1.64-1.05.63-1.82 1.4-1.82 2.4v13.3c0 1 .77 1.77 1.82 2.4 1.1.63 2.54 1.16 4.36 1.63 3.64.9 8.56 1.45 14 1.45 5.45 0 10.37-.56 14-1.45 1.82-.47 3.27-1 4.36-1.63 1.05-.63 1.8-1.4 1.8-2.4v-13.3c0-1-.75-1.77-1.8-2.4-1.1-.63-2.54-1.16-4.36-1.63-3.63-.88-8.55-1.44-14-1.44zm0 1.16c5.37 0 10.25.54 13.72 1.4 1.78.45 3.15.98 4.07 1.5.92.55 1.25 1.08 1.25 1.42 0 .37-.33.88-1.26 1.4-.93.57-2.3 1.08-4.08 1.5-3.47.9-8.35 1.44-13.72 1.44-5.36 0-10.24-.55-13.7-1.43-1.8-.43-3.16-.94-4.1-1.5-.9-.53-1.24-1.04-1.24-1.4 0-.35.33-.88 1.25-1.42.94-.53 2.3-1.06 4.1-1.5 3.46-.87 8.34-1.4 13.7-1.4zm-19.04 5.83c.17.34.33.63.7.92 1 .75 2.53 1.16 4.35 1.62 3.64.9 8.56 1.43 14 1.43 5.45 0 10.37-.54 14-1.44 1.82-.47 3.27-1 4.36-1.63.4-.3.56-.66.7-.92v11.8c0 .33-.34.86-1.27 1.4-.93.53-2.3 1.06-4.08 1.5-3.47.87-8.35 1.4-13.72 1.4-5.36 0-10.24-.53-13.7-1.4-1.8-.44-3.16-.97-4.1-1.5-.9-.54-1.24-1.07-1.24-1.4z" stroke="#000" stroke-opacity="0" stroke-width="3.77" fill="#326ce5"/></g><defs><path fill="#248814" d="M137 0h-34L2-248h35l83 218 83-218h36" id="M"/><path fill="#248814" d="M30-248c87 1 191-15 191 75 0 78-77 80-158 76V0H30v-248zm33 125c57 0 124 11 124-50 0-59-68-47-124-48v98" id="N"/><path fill="#248814" d="M212-179c-10-28-35-45-73-45-59 0-87 40-87 99 0 60 29 101 89 101 43 0 62-24 78-52l27 14C228-24 195 4 139 4 59 4 22-46 18-125c-6-104 99-153 187-111 19 9 31 26 39 46" id="O"/><g id="a"><use transform="matrix(0.05,0,0,0.05,0,0)" xlink:href="#M"/><use transform="matrix(0.05,0,0,0.05,12,0)" xlink:href="#N"/><use transform="matrix(0.05,0,0,0.05,24,0)" xlink:href="#O"/></g><path fill="#147eba" d="M24-248c93 1 206-16 204 79-1 75-69 88-152 82V0H24v-248zm52 121c47 0 100 7 100-41 0-47-54-39-100-39v80" id="P"/><path fill="#147eba" d="M135-150c-39-12-60 13-60 57V0H25l-1-190h47c2 13-1 29 3 40 6-28 27-53 61-41v41" id="Q"/><path fill="#147eba" d="M25-224v-37h50v37H25zM25 0v-190h50V0H25" id="R"/><path fill="#147eba" d="M128 0H69L1-190h53L99-40l48-150h52" id="S"/><path fill="#147eba" d="M133-34C117-15 103 5 69 4 32 3 11-16 11-54c-1-60 55-63 116-61 1-26-3-47-28-47-18 1-26 9-28 27l-52-2c7-38 36-58 82-57s74 22 75 68l1 82c-1 14 12 18 25 15v27c-30 8-71 5-69-32zm-48 3c29 0 43-24 42-57-32 0-66-3-65 30 0 17 8 27 23 27" id="T"/><path fill="#147eba" d="M115-3C79 11 28 4 28-45v-112H4v-33h27l15-45h31v45h36v33H77v99c-1 23 16 31 38 25v30" id="U"/><path fill="#147eba" d="M185-48c-13 30-37 53-82 52C43 2 14-33 14-96s30-98 90-98c62 0 83 45 84 108H66c0 31 8 55 39 56 18 0 30-7 34-22zm-45-69c5-46-57-63-70-21-2 6-4 13-4 21h74" id="V"/><g id="b"><use transform="matrix(0.04320987654320988,0,0,0.04320987654320988,0,0)" xlink:href="#P"/><use transform="matrix(0.04320987654320988,0,0,0.04320987654320988,10.370370370370372,0)" xlink:href="#Q"/><use transform="matrix(0.04320987654320988,0,0,0.04320987654320988,16.419753086419753,0)" xlink:href="#R"/><use transform="matrix(0.04320987654320988,0,0,0.04320987654320988,20.74074074074074,0)" xlink:href="#S"/><use transform="matrix(0.04320987654320988,0,0,0.04320987654320988,29.382716049382715,0)" xlink:href="#T"/><use transform="matrix(0.04320987654320988,0,0,0.04320987654320988,38.02469135802469,0)" xlink:href="#U"/><use transform="matrix(0.04320987654320988,0,0,0.04320987654320988,43.166666666666664,0)" xlink:href="#V"/></g><path fill="#147eba" d="M169-182c-1-43-94-46-97-3 18 66 151 10 154 114 3 95-165 93-204 36-6-8-10-19-12-30l50-8c3 46 112 56 116 5-17-69-150-10-154-114-4-87 153-88 188-35 5 8 8 18 10 28" id="W"/><path fill="#147eba" d="M85 4C-2 5 27-109 22-190h50c7 57-23 150 33 157 60-5 35-97 40-157h50l1 190h-47c-2-12 1-28-3-38-12 25-28 42-61 42" id="X"/><path fill="#147eba" d="M135-194c52 0 70 43 70 98 0 56-19 99-73 100-30 1-46-15-58-35L72 0H24l1-261h50v104c11-23 29-37 60-37zM114-30c31 0 40-27 40-66 0-37-7-63-39-63s-41 28-41 65c0 36 8 64 40 64" id="Y"/><path fill="#147eba" d="M135-194c87-1 58 113 63 194h-50c-7-57 23-157-34-157-59 0-34 97-39 157H25l-1-190h47c2 12-1 28 3 38 12-26 28-41 61-42" id="Z"/><g id="c"><use transform="matrix(0.04320987654320988,0,0,0.04320987654320988,0,0)" xlink:href="#W"/><use transform="matrix(0.04320987654320988,0,0,0.04320987654320988,10.370370370370372,0)" xlink:href="#X"/><use transform="matrix(0.04320987654320988,0,0,0.04320987654320988,19.833333333333336,0)" xlink:href="#Y"/><use transform="matrix(0.04320987654320988,0,0,0.04320987654320988,29.296296296296298,0)" xlink:href="#Z"/><use transform="matrix(0.04320987654320988,0,0,0.04320987654320988,38.75925925925926,0)" xlink:href="#V"/><use transform="matrix(0.04320987654320988,0,0,0.04320987654320988,47.40123456790123,0)" xlink:href="#U"/></g><path fill="#147eba" d="M12 0v-35l95-120H19v-35h142v35L67-36h103V0H12" id="aa"/><path fill="#147eba" d="M23 0v-37h61v-169l-59 37v-38l62-41h46v211h57V0H23" id="ab"/><g id="d"><use transform="matrix(0.04320987654320988,0,0,0.04320987654320988,0,0)" xlink:href="#T"/><use transform="matrix(0.04320987654320988,0,0,0.04320987654320988,8.641975308641976,0)" xlink:href="#aa"/><use transform="matrix(0.04320987654320988,0,0,0.04320987654320988,16.419753086419753,0)" xlink:href="#ab"/></g><path fill="#147eba" d="M182-182c0 78-84 86-111 141h115V0H12c-6-101 99-100 120-180 1-22-12-31-33-32-23 0-32 14-35 34l-49-3c5-45 32-70 84-70 51 0 83 22 83 69" id="ac"/><g id="e"><use transform="matrix(0.04320987654320988,0,0,0.04320987654320988,0,0)" xlink:href="#T"/><use transform="matrix(0.04320987654320988,0,0,0.04320987654320988,8.641975308641976,0)" xlink:href="#aa"/><use transform="matrix(0.04320987654320988,0,0,0.04320987654320988,16.419753086419753,0)" xlink:href="#ac"/></g><path fill="#147eba" d="M128-127c34 4 56 21 59 58 7 91-148 94-172 28-4-9-6-17-7-26l51-5c1 24 16 35 40 36 23 0 39-12 38-36-1-31-31-36-65-34v-40c32 2 59-3 59-33 0-20-13-33-34-33s-33 13-35 32l-50-3c6-44 37-68 86-68 50 0 83 20 83 66 0 35-22 52-53 58" id="ad"/><g id="f"><use transform="matrix(0.04320987654320988,0,0,0.04320987654320988,0,0)" xlink:href="#T"/><use transform="matrix(0.04320987654320988,0,0,0.04320987654320988,8.641975308641976,0)" xlink:href="#aa"/><use transform="matrix(0.04320987654320988,0,0,0.04320987654320988,16.419753086419753,0)" xlink:href="#ad"/></g><path fill="#248814" d="M84 4C-5 8 30-112 23-190h32v120c0 31 7 50 39 49 72-2 45-101 50-169h31l1 190h-30c-1-10 1-25-2-33-11 22-28 36-60 37" id="ae"/><path fill="#248814" d="M115-194c53 0 69 39 70 98 0 66-23 100-70 100C84 3 66-7 56-30L54 0H23l1-261h32v101c10-23 28-34 59-34zm-8 174c40 0 45-34 45-75 0-40-5-75-45-74-42 0-51 32-51 76 0 43 10 73 51 73" id="af"/><path fill="#248814" d="M24 0v-261h32V0H24" id="ag"/><path fill="#248814" d="M24-231v-30h32v30H24zM24 0v-190h32V0H24" id="ah"/><path fill="#248814" d="M96-169c-40 0-48 33-48 73s9 75 48 75c24 0 41-14 43-38l32 2c-6 37-31 61-74 61-59 0-76-41-82-99-10-93 101-131 147-64 4 7 5 14 7 22l-32 3c-4-21-16-35-41-35" id="ai"/><g id="g"><use transform="matrix(0.05,0,0,0.05,0,0)" xlink:href="#N"/><use transform="matrix(0.05,0,0,0.05,12,0)" xlink:href="#ae"/><use transform="matrix(0.05,0,0,0.05,22,0)" xlink:href="#af"/><use transform="matrix(0.05,0,0,0.05,32,0)" xlink:href="#ag"/><use transform="matrix(0.05,0,0,0.05,35.95,0)" xlink:href="#ah"/><use transform="matrix(0.05,0,0,0.05,39.900000000000006,0)" xlink:href="#ai"/></g><path fill="#248814" d="M185-189c-5-48-123-54-124 2 14 75 158 14 163 119 3 78-121 87-175 55-17-10-28-26-33-46l33-7c5 56 141 63 141-1 0-78-155-14-162-118-5-82 145-84 179-34 5 7 8 16 11 25" id="aj"/><path fill="#248814" d="M117-194c89-4 53 116 60 194h-32v-121c0-31-8-49-39-48C34-167 62-67 57 0H25l-1-190h30c1 10-1 24 2 32 11-22 29-35 61-36" id="ak"/><path fill="#248814" d="M100-194c63 0 86 42 84 106H49c0 40 14 67 53 68 26 1 43-12 49-29l28 8c-11 28-37 45-77 45C44 4 14-33 15-96c1-61 26-98 85-98zm52 81c6-60-76-77-97-28-3 7-6 17-6 28h103" id="al"/><path fill="#248814" d="M59-47c-2 24 18 29 38 22v24C64 9 27 4 27-40v-127H5v-23h24l9-43h21v43h35v23H59v120" id="am"/><path fill="#248814" d="M135-143c-3-34-86-38-87 0 15 53 115 12 119 90S17 21 10-45l28-5c4 36 97 45 98 0-10-56-113-15-118-90-4-57 82-63 122-42 12 7 21 19 24 35" id="an"/><g id="h"><use transform="matrix(0.05,0,0,0.05,0,0)" xlink:href="#aj"/><use transform="matrix(0.05,0,0,0.05,12,0)" xlink:href="#ae"/><use transform="matrix(0.05,0,0,0.05,22,0)" xlink:href="#af"/><use transform="matrix(0.05,0,0,0.05,32,0)" xlink:href="#ak"/><use transform="matrix(0.05,0,0,0.05,42,0)" xlink:href="#al"/><use transform="matrix(0.05,0,0,0.05,52,0)" xlink:href="#am"/><use transform="matrix(0.05,0,0,0.05,57,0)" xlink:href="#an"/></g><path d="M205 0l-28-72H64L36 0H1l101-248h38L239 0h-34zm-38-99l-47-123c-12 45-31 82-46 123h93" id="ao"/><path d="M266 0h-40l-56-210L115 0H75L2-248h35L96-30l15-64 43-154h32l59 218 59-218h35" id="ap"/><path d="M185-189c-5-48-123-54-124 2 14 75 158 14 163 119 3 78-121 87-175 55-17-10-28-26-33-46l33-7c5 56 141 63 141-1 0-78-155-14-162-118-5-82 145-84 179-34 5 7 8 16 11 25" id="aq"/><g id="i"><use transform="matrix(0.05,0,0,0.05,0,0)" xlink:href="#ao"/><use transform="matrix(0.05,0,0,0.05,11.35,0)" xlink:href="#ap"/><use transform="matrix(0.05,0,0,0.05,28.299999999999997,0)" xlink:href="#aq"/></g><path d="M30 0v-248h33v221h125V0H30" id="ar"/><path d="M100-194c62-1 85 37 85 99 1 63-27 99-86 99S16-35 15-95c0-66 28-99 85-99zM99-20c44 1 53-31 53-75 0-43-8-75-51-75s-53 32-53 75 10 74 51 75" id="as"/><path d="M141-36C126-15 110 5 73 4 37 3 15-17 15-53c-1-64 63-63 125-63 3-35-9-54-41-54-24 1-41 7-42 31l-33-3c5-37 33-52 76-52 45 0 72 20 72 64v82c-1 20 7 32 28 27v20c-31 9-61-2-59-35zM48-53c0 20 12 33 32 33 41-3 63-29 60-74-43 2-92-5-92 41" id="at"/><path d="M85-194c31 0 48 13 60 33l-1-100h32l1 261h-30c-2-10 0-23-3-31C134-8 116 4 85 4 32 4 16-35 15-94c0-66 23-100 70-100zm9 24c-40 0-46 34-46 75 0 40 6 74 45 74 42 0 51-32 51-76 0-42-9-74-50-73" id="au"/><g id="j"><use transform="matrix(0.05,0,0,0.05,0,0)" xlink:href="#ar"/><use transform="matrix(0.05,0,0,0.05,10,0)" xlink:href="#as"/><use transform="matrix(0.05,0,0,0.05,20,0)" xlink:href="#at"/><use transform="matrix(0.05,0,0,0.05,30,0)" xlink:href="#au"/></g><path d="M160-131c35 5 61 23 61 61C221 17 115-2 30 0v-248c76 3 177-17 177 60 0 33-19 50-47 57zm-97-11c50-1 110 9 110-42 0-47-63-36-110-37v79zm0 115c55-2 124 14 124-45 0-56-70-42-124-44v89" id="av"/><path d="M24 0v-261h32V0H24" id="aw"/><path d="M117-194c89-4 53 116 60 194h-32v-121c0-31-8-49-39-48C34-167 62-67 57 0H25l-1-190h30c1 10-1 24 2 32 11-22 29-35 61-36" id="ax"/><path d="M96-169c-40 0-48 33-48 73s9 75 48 75c24 0 41-14 43-38l32 2c-6 37-31 61-74 61-59 0-76-41-82-99-10-93 101-131 147-64 4 7 5 14 7 22l-32 3c-4-21-16-35-41-35" id="ay"/><path d="M100-194c63 0 86 42 84 106H49c0 40 14 67 53 68 26 1 43-12 49-29l28 8c-11 28-37 45-77 45C44 4 14-33 15-96c1-61 26-98 85-98zm52 81c6-60-76-77-97-28-3 7-6 17-6 28h103" id="az"/><path d="M114-163C36-179 61-72 57 0H25l-1-190h30c1 12-1 29 2 39 6-27 23-49 58-41v29" id="aA"/><g id="k"><use transform="matrix(0.05,0,0,0.05,0,0)" xlink:href="#av"/><use transform="matrix(0.05,0,0,0.05,12,0)" xlink:href="#at"/><use transform="matrix(0.05,0,0,0.05,22,0)" xlink:href="#aw"/><use transform="matrix(0.05,0,0,0.05,25.950000000000003,0)" xlink:href="#at"/><use transform="matrix(0.05,0,0,0.05,35.95,0)" xlink:href="#ax"/><use transform="matrix(0.05,0,0,0.05,45.95,0)" xlink:href="#ay"/><use transform="matrix(0.05,0,0,0.05,54.95,0)" xlink:href="#az"/><use transform="matrix(0.05,0,0,0.05,64.95,0)" xlink:href="#aA"/></g><path d="M108 0H70L1-190h34L89-25l56-165h34" id="aB"/><path d="M179-190L93 31C79 59 56 82 12 73V49c39 6 53-20 64-50L1-190h34L92-34l54-156h33" id="aC"/><g id="l"><use transform="matrix(0.05,0,0,0.05,0,0)" xlink:href="#az"/><use transform="matrix(0.05,0,0,0.05,10,0)" xlink:href="#ax"/><use transform="matrix(0.05,0,0,0.05,20,0)" xlink:href="#aB"/><use transform="matrix(0.05,0,0,0.05,29,0)" xlink:href="#as"/><use transform="matrix(0.05,0,0,0.05,39,0)" xlink:href="#aC"/></g><path d="M101-234c-31-9-42 10-38 44h38v23H63V0H32v-167H5v-23h27c-7-52 17-82 69-68v24" id="aD"/><path d="M24-231v-30h32v30H24zM24 0v-190h32V0H24" id="aE"/><path d="M177-190C167-65 218 103 67 71c-23-6-38-20-44-43l32-5c15 47 100 32 89-28v-30C133-14 115 1 83 1 29 1 15-40 15-95c0-56 16-97 71-98 29-1 48 16 59 35 1-10 0-23 2-32h30zM94-22c36 0 50-32 50-73 0-42-14-75-50-75-39 0-46 34-46 75s6 73 46 73" id="aF"/><g id="m"><use transform="matrix(0.05,0,0,0.05,0,0)" xlink:href="#ay"/><use transform="matrix(0.05,0,0,0.05,9,0)" xlink:href="#as"/><use transform="matrix(0.05,0,0,0.05,19,0)" xlink:href="#ax"/><use transform="matrix(0.05,0,0,0.05,29,0)" xlink:href="#aD"/><use transform="matrix(0.05,0,0,0.05,34,0)" xlink:href="#aE"/><use transform="matrix(0.05,0,0,0.05,37.95,0)" xlink:href="#aF"/></g><g id="n"><use transform="matrix(0.06790123456790124,0,0,0.06790123456790124,0,0)" xlink:href="#az"/><use transform="matrix(0.06790123456790124,0,0,0.06790123456790124,13.580246913580249,0)" xlink:href="#ax"/><use transform="matrix(0.06790123456790124,0,0,0.06790123456790124,27.160493827160497,0)" xlink:href="#aB"/><use transform="matrix(0.06790123456790124,0,0,0.06790123456790124,39.38271604938272,0)" xlink:href="#as"/><use transform="matrix(0.06790123456790124,0,0,0.06790123456790124,52.96296296296297,0)" xlink:href="#aC"/></g><path d="M135-143c-3-34-86-38-87 0 15 53 115 12 119 90S17 21 10-45l28-5c4 36 97 45 98 0-10-56-113-15-118-90-4-57 82-63 122-42 12 7 21 19 24 35" id="aG"/><g id="o"><use transform="matrix(0.06790123456790124,0,0,0.06790123456790124,0,0)" xlink:href="#aG"/><use transform="matrix(0.06790123456790124,0,0,0.06790123456790124,12.222222222222223,0)" xlink:href="#aE"/><use transform="matrix(0.06790123456790124,0,0,0.06790123456790124,17.58641975308642,0)" xlink:href="#au"/><use transform="matrix(0.06790123456790124,0,0,0.06790123456790124,31.16666666666667,0)" xlink:href="#az"/><use transform="matrix(0.06790123456790124,0,0,0.06790123456790124,44.74691358024692,0)" xlink:href="#ay"/><use transform="matrix(0.06790123456790124,0,0,0.06790123456790124,56.96913580246914,0)" xlink:href="#at"/><use transform="matrix(0.06790123456790124,0,0,0.06790123456790124,70.5493827160494,0)" xlink:href="#aA"/></g><path d="M59-47c-2 24 18 29 38 22v24C64 9 27 4 27-40v-127H5v-23h24l9-43h21v43h35v23H59v120" id="aH"/><g id="p"><use transform="matrix(0.04320987654320988,0,0,0.04320987654320988,0,0)" xlink:href="#ay"/><use transform="matrix(0.04320987654320988,0,0,0.04320987654320988,7.777777777777779,0)" xlink:href="#as"/><use transform="matrix(0.04320987654320988,0,0,0.04320987654320988,16.419753086419753,0)" xlink:href="#ax"/><use transform="matrix(0.04320987654320988,0,0,0.04320987654320988,25.061728395061728,0)" xlink:href="#aH"/><use transform="matrix(0.04320987654320988,0,0,0.04320987654320988,29.382716049382715,0)" xlink:href="#at"/><use transform="matrix(0.04320987654320988,0,0,0.04320987654320988,38.02469135802469,0)" xlink:href="#aE"/><use transform="matrix(0.04320987654320988,0,0,0.04320987654320988,41.43827160493827,0)" xlink:href="#ax"/><use transform="matrix(0.04320987654320988,0,0,0.04320987654320988,50.08024691358024,0)" xlink:href="#az"/><use transform="matrix(0.04320987654320988,0,0,0.04320987654320988,58.72222222222222,0)" xlink:href="#aA"/><use transform="matrix(0.04320987654320988,0,0,0.04320987654320988,63.864197530864196,0)" xlink:href="#aG"/></g><path d="M126-127c33 6 58 20 58 59 0 88-139 92-164 29-3-8-5-16-6-25l32-3c6 27 21 44 54 44 32 0 52-15 52-46 0-38-36-46-79-43v-28c39 1 72-4 72-42 0-27-17-43-46-43-28 0-47 15-49 41l-32-3c6-42 35-63 81-64 48-1 79 21 79 65 0 36-21 52-52 59" id="aI"/><path d="M0 4l72-265h28L28 4H0" id="aJ"/><path d="M210-169c-67 3-38 105-44 169h-31v-121c0-29-5-50-35-48C34-165 62-65 56 0H25l-1-190h30c1 10-1 24 2 32 10-44 99-50 107 0 11-21 27-35 58-36 85-2 47 119 55 194h-31v-121c0-29-5-49-35-48" id="aK"/><g id="q"><use transform="matrix(0.05,0,0,0.05,0,0)" xlink:href="#aI"/><use transform="matrix(0.05,0,0,0.05,10,0)" xlink:href="#aG"/><use transform="matrix(0.05,0,0,0.05,19,0)" xlink:href="#ay"/><use transform="matrix(0.05,0,0,0.05,28,0)" xlink:href="#at"/><use transform="matrix(0.05,0,0,0.05,38,0)" xlink:href="#aw"/><use transform="matrix(0.05,0,0,0.05,41.95,0)" xlink:href="#az"/><use transform="matrix(0.05,0,0,0.05,51.95,0)" xlink:href="#aJ"/><use transform="matrix(0.05,0,0,0.05,56.95,0)" xlink:href="#aw"/><use transform="matrix(0.05,0,0,0.05,60.900000000000006,0)" xlink:href="#aE"/><use transform="matrix(0.05,0,0,0.05,64.85000000000001,0)" xlink:href="#aK"/><use transform="matrix(0.05,0,0,0.05,79.80000000000001,0)" xlink:href="#aE"/><use transform="matrix(0.05,0,0,0.05,83.75000000000001,0)" xlink:href="#aH"/><use transform="matrix(0.05,0,0,0.05,88.75000000000001,0)" xlink:href="#at"/><use transform="matrix(0.05,0,0,0.05,98.75000000000001,0)" xlink:href="#au"/><use transform="matrix(0.05,0,0,0.05,108.75,0)" xlink:href="#as"/><use transform="matrix(0.05,0,0,0.05,118.75,0)" xlink:href="#aA"/></g><path d="M67-125c0 53 21 87 73 88 37 1 54-22 65-47l45 17C233-25 199 4 140 4 58 4 20-42 15-125 8-235 124-281 211-232c18 10 29 29 36 50l-46 12c-8-25-30-41-62-41-52 0-71 34-72 86" id="aL"/><path d="M110-194c64 0 96 36 96 99 0 64-35 99-97 99-61 0-95-36-95-99 0-62 34-99 96-99zm-1 164c35 0 45-28 45-65 0-40-10-65-43-65-34 0-45 26-45 65 0 36 10 65 43 65" id="aM"/><path d="M135-194c87-1 58 113 63 194h-50c-7-57 23-157-34-157-59 0-34 97-39 157H25l-1-190h47c2 12-1 28 3 38 12-26 28-41 61-42" id="aN"/><path d="M121-226c-27-7-43 5-38 36h38v33H83V0H34v-157H6v-33h28c-9-59 32-81 87-68v32" id="aO"/><path d="M25-224v-37h50v37H25zM25 0v-190h50V0H25" id="aP"/><path d="M195-6C206 82 75 100 31 46c-4-6-6-13-8-21l49-6c3 16 16 24 34 25 40 0 42-37 40-79-11 22-30 35-61 35-53 0-70-43-70-97 0-56 18-96 73-97 30 0 46 14 59 34l2-30h47zm-90-29c32 0 41-27 41-63 0-35-9-62-40-62-32 0-39 29-40 63 0 36 9 62 39 62" id="aQ"/><path d="M230 0l2-204L168 0h-37L68-204 70 0H24v-248h70l56 185 57-185h69V0h-46" id="aR"/><path d="M133-34C117-15 103 5 69 4 32 3 11-16 11-54c-1-60 55-63 116-61 1-26-3-47-28-47-18 1-26 9-28 27l-52-2c7-38 36-58 82-57s74 22 75 68l1 82c-1 14 12 18 25 15v27c-30 8-71 5-69-32zm-48 3c29 0 43-24 42-57-32 0-66-3-65 30 0 17 8 27 23 27" id="aS"/><path d="M135-194c53 0 70 44 70 98 0 56-19 98-73 100-31 1-45-17-59-34 3 33 2 69 2 105H25l-1-265h48c2 10 0 23 3 31 11-24 29-35 60-35zM114-30c33 0 39-31 40-66 0-38-9-64-40-64-56 0-55 130 0 130" id="aT"/><g id="r"><use transform="matrix(0.04938271604938272,0,0,0.04938271604938272,0,0)" xlink:href="#aL"/><use transform="matrix(0.04938271604938272,0,0,0.04938271604938272,12.790123456790125,0)" xlink:href="#aM"/><use transform="matrix(0.04938271604938272,0,0,0.04938271604938272,23.60493827160494,0)" xlink:href="#aN"/><use transform="matrix(0.04938271604938272,0,0,0.04938271604938272,34.41975308641975,0)" xlink:href="#aO"/><use transform="matrix(0.04938271604938272,0,0,0.04938271604938272,40.2962962962963,0)" xlink:href="#aP"/><use transform="matrix(0.04938271604938272,0,0,0.04938271604938272,45.23456790123457,0)" xlink:href="#aQ"/><use transform="matrix(0.04938271604938272,0,0,0.04938271604938272,56.04938271604939,0)" xlink:href="#aR"/><use transform="matrix(0.04938271604938272,0,0,0.04938271604938272,70.81481481481482,0)" xlink:href="#aS"/><use transform="matrix(0.04938271604938272,0,0,0.04938271604938272,80.69135802469137,0)" xlink:href="#aT"/></g><path d="M231 0h-52l-39-155L100 0H48L-1-190h46L77-45c9-52 24-97 36-145h53l37 145 32-145h46" id="aU"/><path d="M115-3C79 11 28 4 28-45v-112H4v-33h27l15-45h31v45h36v33H77v99c-1 23 16 31 38 25v30" id="aV"/><path d="M114-157C55-157 80-60 75 0H25v-261h50l-1 109c12-26 28-41 61-42 86-1 58 113 63 194h-50c-7-57 23-157-34-157" id="aW"/><g id="s"><use transform="matrix(0.04938271604938272,0,0,0.04938271604938272,0,0)" xlink:href="#aU"/><use transform="matrix(0.04938271604938272,0,0,0.04938271604938272,13.827160493827162,0)" xlink:href="#aP"/><use transform="matrix(0.04938271604938272,0,0,0.04938271604938272,18.765432098765434,0)" xlink:href="#aV"/><use transform="matrix(0.04938271604938272,0,0,0.04938271604938272,24.641975308641978,0)" xlink:href="#aW"/></g><path d="M135-150c-39-12-60 13-60 57V0H25l-1-190h47c2 13-1 29 3 40 6-28 27-53 61-41v41" id="aX"/><path d="M185-48c-13 30-37 53-82 52C43 2 14-33 14-96s30-98 90-98c62 0 83 45 84 108H66c0 31 8 55 39 56 18 0 30-7 34-22zm-45-69c5-46-57-63-70-21-2 6-4 13-4 21h74" id="aY"/><path d="M25 0v-261h50V0H25" id="aZ"/><path d="M220-157c-53 9-28 100-34 157h-49v-107c1-27-5-49-29-50C55-147 81-57 75 0H25l-1-190h47c2 12-1 28 3 38 10-53 101-56 108 0 13-22 24-43 59-42 82 1 51 116 57 194h-49v-107c-1-25-5-48-29-50" id="ba"/><g id="t"><use transform="matrix(0.04938271604938272,0,0,0.04938271604938272,0,0)" xlink:href="#aX"/><use transform="matrix(0.04938271604938272,0,0,0.04938271604938272,6.913580246913581,0)" xlink:href="#aS"/><use transform="matrix(0.04938271604938272,0,0,0.04938271604938272,16.790123456790127,0)" xlink:href="#aV"/><use transform="matrix(0.04938271604938272,0,0,0.04938271604938272,22.66666666666667,0)" xlink:href="#aY"/><use transform="matrix(0.04938271604938272,0,0,0.04938271604938272,32.543209876543216,0)" xlink:href="#aZ"/><use transform="matrix(0.04938271604938272,0,0,0.04938271604938272,37.48148148148149,0)" xlink:href="#aP"/><use transform="matrix(0.04938271604938272,0,0,0.04938271604938272,42.41975308641976,0)" xlink:href="#ba"/><use transform="matrix(0.04938271604938272,0,0,0.04938271604938272,58.22222222222223,0)" xlink:href="#aP"/><use transform="matrix(0.04938271604938272,0,0,0.04938271604938272,63.1604938271605,0)" xlink:href="#aV"/></g><path d="M85 4C-2 5 27-109 22-190h50c7 57-23 150 33 157 60-5 35-97 40-157h50l1 190h-47c-2-12 1-28-3-38-12 25-28 42-61 42" id="bb"/><path d="M137-138c1-29-70-34-71-4 15 46 118 7 119 86 1 83-164 76-172 9l43-7c4 19 20 25 44 25 33 8 57-30 24-41C81-84 22-81 20-136c-2-80 154-74 161-7" id="bc"/><g id="u"><use transform="matrix(0.04938271604938272,0,0,0.04938271604938272,0,0)" xlink:href="#aX"/><use transform="matrix(0.04938271604938272,0,0,0.04938271604938272,6.913580246913581,0)" xlink:href="#bb"/><use transform="matrix(0.04938271604938272,0,0,0.04938271604938272,17.728395061728396,0)" xlink:href="#aZ"/><use transform="matrix(0.04938271604938272,0,0,0.04938271604938272,22.666666666666668,0)" xlink:href="#aY"/><use transform="matrix(0.04938271604938272,0,0,0.04938271604938272,32.543209876543216,0)" xlink:href="#bc"/></g><g id="v"><use transform="matrix(0.05,0,0,0.05,0,0)" xlink:href="#aG"/><use transform="matrix(0.05,0,0,0.05,9,0)" xlink:href="#az"/><use transform="matrix(0.05,0,0,0.05,19,0)" xlink:href="#ax"/><use transform="matrix(0.05,0,0,0.05,29,0)" xlink:href="#au"/><use transform="matrix(0.05,0,0,0.05,39,0)" xlink:href="#aG"/></g><path d="M145-31C134-9 116 4 85 4 32 4 16-35 15-94c0-59 17-99 70-100 32-1 48 14 60 33 0-11-1-24 2-32h30l-1 268h-32zM93-21c41 0 51-33 51-76s-8-73-50-73c-40 0-46 35-46 75s5 74 45 74" id="bd"/><path d="M84 4C-5 8 30-112 23-190h32v120c0 31 7 50 39 49 72-2 45-101 50-169h31l1 190h-30c-1-10 1-25-2-33-11 22-28 36-60 37" id="be"/><g id="w"><use transform="matrix(0.05,0,0,0.05,0,0)" xlink:href="#aA"/><use transform="matrix(0.05,0,0,0.05,5.95,0)" xlink:href="#az"/><use transform="matrix(0.05,0,0,0.05,15.949999999999998,0)" xlink:href="#bd"/><use transform="matrix(0.05,0,0,0.05,25.950000000000003,0)" xlink:href="#be"/><use transform="matrix(0.05,0,0,0.05,35.95,0)" xlink:href="#az"/><use transform="matrix(0.05,0,0,0.05,45.95,0)" xlink:href="#aG"/><use transform="matrix(0.05,0,0,0.05,54.95,0)" xlink:href="#aH"/></g><g id="x"><use transform="matrix(0.05,0,0,0.05,0,0)" xlink:href="#aE"/><use transform="matrix(0.05,0,0,0.05,3.95,0)" xlink:href="#ax"/><use transform="matrix(0.05,0,0,0.05,13.949999999999998,0)" xlink:href="#aD"/><use transform="matrix(0.05,0,0,0.05,18.95,0)" xlink:href="#as"/></g><g id="y"><use transform="matrix(0.05,0,0,0.05,0,0)" xlink:href="#at"/><use transform="matrix(0.05,0,0,0.05,10,0)" xlink:href="#aG"/></g><g id="z"><use transform="matrix(0.05,0,0,0.05,0,0)" xlink:href="#aE"/><use transform="matrix(0.05,0,0,0.05,3.95,0)" xlink:href="#ax"/><use transform="matrix(0.05,0,0,0.05,13.949999999999998,0)" xlink:href="#aG"/><use transform="matrix(0.05,0,0,0.05,22.95,0)" xlink:href="#aH"/><use transform="matrix(0.05,0,0,0.05,27.950000000000003,0)" xlink:href="#aA"/><use transform="matrix(0.05,0,0,0.05,33.9,0)" xlink:href="#be"/><use transform="matrix(0.05,0,0,0.05,43.9,0)" xlink:href="#ay"/><use transform="matrix(0.05,0,0,0.05,52.900000000000006,0)" xlink:href="#aH"/><use transform="matrix(0.05,0,0,0.05,57.900000000000006,0)" xlink:href="#az"/><use transform="matrix(0.05,0,0,0.05,67.9,0)" xlink:href="#au"/></g><path d="M115-194c55 1 70 41 70 98S169 2 115 4C84 4 66-9 55-30l1 105H24l-1-265h31l2 30c10-21 28-34 59-34zm-8 174c40 0 45-34 45-75s-6-73-45-74c-42 0-51 32-51 76 0 43 10 73 51 73" id="bf"/><g id="A"><use transform="matrix(0.05,0,0,0.05,0,0)" xlink:href="#bf"/><use transform="matrix(0.05,0,0,0.05,10,0)" xlink:href="#az"/><use transform="matrix(0.05,0,0,0.05,20,0)" xlink:href="#aA"/></g><path d="M106-169C34-169 62-67 57 0H25v-261h32l-1 103c12-21 28-36 61-36 89 0 53 116 60 194h-32v-121c2-32-8-49-39-48" id="bg"/><g id="B"><use transform="matrix(0.05,0,0,0.05,0,0)" xlink:href="#aH"/><use transform="matrix(0.05,0,0,0.05,5,0)" xlink:href="#bg"/><use transform="matrix(0.05,0,0,0.05,15,0)" xlink:href="#az"/></g><g id="C"><use transform="matrix(0.05,0,0,0.05,0,0)" xlink:href="#aA"/><use transform="matrix(0.05,0,0,0.05,5.95,0)" xlink:href="#at"/><use transform="matrix(0.05,0,0,0.05,15.949999999999998,0)" xlink:href="#aH"/><use transform="matrix(0.05,0,0,0.05,20.95,0)" xlink:href="#az"/></g><g id="D"><use transform="matrix(0.05,0,0,0.05,0,0)" xlink:href="#aw"/><use transform="matrix(0.05,0,0,0.05,3.95,0)" xlink:href="#aE"/><use transform="matrix(0.05,0,0,0.05,7.9,0)" xlink:href="#aK"/><use transform="matrix(0.05,0,0,0.05,22.85,0)" xlink:href="#aE"/><use transform="matrix(0.05,0,0,0.05,26.8,0)" xlink:href="#aH"/></g><g id="E"><use transform="matrix(0.05,0,0,0.05,0,0)" xlink:href="#at"/><use transform="matrix(0.05,0,0,0.05,10,0)" xlink:href="#ay"/><use transform="matrix(0.05,0,0,0.05,19,0)" xlink:href="#aH"/><use transform="matrix(0.05,0,0,0.05,24,0)" xlink:href="#aE"/><use transform="matrix(0.05,0,0,0.05,27.950000000000003,0)" xlink:href="#as"/><use transform="matrix(0.05,0,0,0.05,37.95,0)" xlink:href="#ax"/><use transform="matrix(0.05,0,0,0.05,47.95,0)" xlink:href="#aG"/></g><path d="M206 0h-36l-40-164L89 0H53L-1-190h32L70-26l43-164h34l41 164 42-164h31" id="bh"/><g id="F"><use transform="matrix(0.05,0,0,0.05,0,0)" xlink:href="#at"/><use transform="matrix(0.05,0,0,0.05,10,0)" xlink:href="#aw"/><use transform="matrix(0.05,0,0,0.05,13.949999999999998,0)" xlink:href="#aw"/><use transform="matrix(0.05,0,0,0.05,17.9,0)" xlink:href="#as"/><use transform="matrix(0.05,0,0,0.05,27.899999999999995,0)" xlink:href="#bh"/><use transform="matrix(0.05,0,0,0.05,40.85,0)" xlink:href="#aG"/><use transform="matrix(0.05,0,0,0.05,49.85,0)" xlink:href="#aJ"/><use transform="matrix(0.05,0,0,0.05,54.85,0)" xlink:href="#au"/><use transform="matrix(0.05,0,0,0.05,64.85,0)" xlink:href="#az"/><use transform="matrix(0.05,0,0,0.05,74.85,0)" xlink:href="#ax"/><use transform="matrix(0.05,0,0,0.05,84.85,0)" xlink:href="#aE"/><use transform="matrix(0.05,0,0,0.05,88.8,0)" xlink:href="#az"/><use transform="matrix(0.05,0,0,0.05,98.8,0)" xlink:href="#aG"/></g><g id="G"><use transform="matrix(0.05,0,0,0.05,0,0)" xlink:href="#au"/><use transform="matrix(0.05,0,0,0.05,10,0)" xlink:href="#az"/><use transform="matrix(0.05,0,0,0.05,20,0)" xlink:href="#bf"/><use transform="matrix(0.05,0,0,0.05,30,0)" xlink:href="#az"/><use transform="matrix(0.05,0,0,0.05,40,0)" xlink:href="#ax"/><use transform="matrix(0.05,0,0,0.05,50,0)" xlink:href="#au"/><use transform="matrix(0.05,0,0,0.05,60,0)" xlink:href="#aE"/><use transform="matrix(0.05,0,0,0.05,63.95,0)" xlink:href="#ax"/><use transform="matrix(0.05,0,0,0.05,73.95,0)" xlink:href="#aF"/></g><g id="H"><use transform="matrix(0.05,0,0,0.05,0,0)" xlink:href="#as"/><use transform="matrix(0.05,0,0,0.05,10,0)" xlink:href="#ax"/></g><g id="I"><use transform="matrix(0.05,0,0,0.05,0,0)" xlink:href="#aA"/><use transform="matrix(0.05,0,0,0.05,5.95,0)" xlink:href="#be"/><use transform="matrix(0.05,0,0,0.05,15.949999999999998,0)" xlink:href="#aw"/><use transform="matrix(0.05,0,0,0.05,19.9,0)" xlink:href="#az"/><use transform="matrix(0.05,0,0,0.05,29.899999999999995,0)" xlink:href="#aG"/></g><g id="J"><use transform="matrix(0.05,0,0,0.05,0,0)" xlink:href="#aK"/><use transform="matrix(0.05,0,0,0.05,14.950000000000001,0)" xlink:href="#at"/><use transform="matrix(0.05,0,0,0.05,24.950000000000003,0)" xlink:href="#aH"/><use transform="matrix(0.05,0,0,0.05,29.950000000000003,0)" xlink:href="#ay"/><use transform="matrix(0.05,0,0,0.05,38.95,0)" xlink:href="#bg"/><use transform="matrix(0.05,0,0,0.05,48.95,0)" xlink:href="#az"/><use transform="matrix(0.05,0,0,0.05,58.95,0)" xlink:href="#aG"/></g><g id="K"><use transform="matrix(0.05,0,0,0.05,0,0)" xlink:href="#aA"/><use transform="matrix(0.05,0,0,0.05,5.95,0)" xlink:href="#at"/><use transform="matrix(0.05,0,0,0.05,15.949999999999998,0)" xlink:href="#aH"/><use transform="matrix(0.05,0,0,0.05,20.95,0)" xlink:href="#az"/><use transform="matrix(0.05,0,0,0.05,30.950000000000003,0)" xlink:href="#aw"/><use transform="matrix(0.05,0,0,0.05,34.9,0)" xlink:href="#aE"/><use transform="matrix(0.05,0,0,0.05,38.85,0)" xlink:href="#aK"/><use transform="matrix(0.05,0,0,0.05,53.800000000000004,0)" xlink:href="#aE"/><use transform="matrix(0.05,0,0,0.05,57.75,0)" xlink:href="#aH"/></g><g id="L"><use transform="matrix(0.05,0,0,0.05,0,0)" xlink:href="#ay"/><use transform="matrix(0.05,0,0,0.05,9,0)" xlink:href="#at"/><use transform="matrix(0.05,0,0,0.05,19,0)" xlink:href="#ay"/><use transform="matrix(0.05,0,0,0.05,28,0)" xlink:href="#bg"/><use transform="matrix(0.05,0,0,0.05,38,0)" xlink:href="#az"/></g></defs></g></svg>